<svg aria-hidden="true" style="position: absolute; width: 0; height: 0; overflow: hidden;" version="1.1" xmlns="http://www.w3.org/2000/svg" xmlns:xlink="http://www.w3.org/1999/xlink">
    <defs>
        <symbol id="icon-youtube" viewBox="-21 -117 682.667 682">
            <path d="M626.813 64.035c-7.375-27.418-28.993-49.031-56.407-56.414C520.324-6.082 319.992-6.082 319.992-6.082s-200.324 0-250.406 13.184c-26.887 7.375-49.031 29.52-56.406 56.933C0 114.113 0 217.97 0 217.97s0 104.379 13.18 153.933c7.382 27.414 28.992 49.028 56.41 56.41C120.195 442.02 320 442.02 320 442.02s200.324 0 250.406-13.184c27.418-7.379 49.032-28.992 56.414-56.406 13.176-50.082 13.176-153.934 13.176-153.934s.527-104.383-13.183-154.46zM256.21 313.915V122.022l166.586 95.946zm0 0"/>
        </symbol>
        <symbol id="icon-github-alt" viewBox="0 0 32 32">
            <path d="M11.631 20.544c0 1.306-0.681 3.444-2.294 3.444s-2.294-2.137-2.294-3.444 0.681-3.444 2.294-3.444 2.294 2.137 2.294 3.444zM30 17.387c0 1.994-0.2 4.106-1.094 5.938-2.369 4.787-8.881 4.675-13.544 4.675-4.738 0-11.637 0.169-14.1-4.675-0.912-1.813-1.262-3.944-1.262-5.938 0-2.619 0.869-5.094 2.594-7.1-0.325-0.988-0.481-2.025-0.481-3.050 0-1.344 0.306-2.019 0.913-3.237 2.831 0 4.644 0.563 6.8 2.25 1.813-0.431 3.675-0.625 5.544-0.625 1.688 0 3.387 0.181 5.025 0.575 2.125-1.669 3.938-2.2 6.738-2.2 0.613 1.219 0.913 1.894 0.913 3.237 0 1.025-0.163 2.044-0.481 3.013 1.719 2.025 2.438 4.519 2.438 7.137zM25.981 20.544c0-2.744-1.669-5.162-4.594-5.162-1.181 0-2.313 0.213-3.5 0.375-0.931 0.144-1.863 0.2-2.819 0.2-0.95 0-1.881-0.056-2.819-0.2-1.169-0.162-2.313-0.375-3.5-0.375-2.925 0-4.594 2.419-4.594 5.162 0 5.488 5.025 6.331 9.4 6.331h3.013c4.394 0 9.413-0.837 9.413-6.331zM20.819 17.1c-1.613 0-2.294 2.137-2.294 3.444s0.681 3.444 2.294 3.444 2.294-2.137 2.294-3.444-0.681-3.444-2.294-3.444z"></path>
        </symbol>
        <symbol id="icon-telegram-plane" fill="none" viewBox="0 0 14 12">
            <path d="M13.553 0a.45.45 0 0 0-.162.023l-13.117 5c-.37.139-.37.671.023.787l3.049 1.018 1.824 3.68c.023.07.092.116.185.116a.176.176 0 0 0 .115-.046L7.18 9.12 5.261 7.662l.162 1.92-1.386-2.87 7.321-4.42-6.097 5.346 4.758 3.611a.924.924 0 0 0 .53.185.86.86 0 0 0 .832-.648l2.563-10.3C14.038.255 13.83 0 13.553 0z" fill="#787878"/>
        </symbol>
        <symbol id="icon-twitter-logo" fill="none" viewBox="0 0 15 12">
            <path d="M13.487 2.832c.008.123.008.247.008.371 0 3.796-2.882 8.173-8.153 8.173v-.002a8.099 8.099 0 0 1-4.393-1.288 5.745 5.745 0 0 0 4.241-1.19A2.87 2.87 0 0 1 2.513 6.9c.43.083.872.066 1.294-.05a2.87 2.87 0 0 1-2.299-2.815V4c.399.222.845.346 1.3.36A2.88 2.88 0 0 1 1.923.523a8.127 8.127 0 0 0 5.906 3A2.878 2.878 0 0 1 8.657.78a2.864 2.864 0 0 1 4.054.125 5.742 5.742 0 0 0 1.82-.697 2.882 2.882 0 0 1-1.26 1.588 5.69 5.69 0 0 0 1.646-.452 5.831 5.831 0 0 1-1.43 1.488z" fill="#787878"/>
        </symbol>
        <symbol id="icon-github" fill="none" viewBox="0 0 14 13">
            <path fill-rule="evenodd" clip-rule="evenodd" d="M7.328 0C3.745 0 .843 2.982.843 6.664c0 2.95 1.856 5.44 4.434 6.323.324.059.446-.141.446-.316 0-.159-.008-.683-.008-1.241-1.63.308-2.051-.409-2.181-.784-.073-.191-.39-.783-.665-.941-.227-.125-.55-.433-.008-.441.51-.009.876.483.997.683.584 1.008 1.516.724 1.889.55.057-.434.227-.725.413-.892-1.442-.167-2.95-.741-2.95-3.29 0-.725.251-1.325.664-1.792-.064-.166-.291-.85.065-1.766 0 0 .543-.175 1.784.683a5.866 5.866 0 0 1 1.621-.224c.551 0 1.102.075 1.621.224 1.24-.866 1.784-.683 1.784-.683.356.917.13 1.6.064 1.766.414.467.665 1.058.665 1.792 0 2.557-1.516 3.123-2.959 3.29.235.208.438.608.438 1.233 0 .891-.008 1.608-.008 1.833 0 .175.122.383.446.316a6.513 6.513 0 0 0 3.198-2.43 6.802 6.802 0 0 0 1.22-3.893C13.813 2.982 10.91 0 7.328 0z" fill="#787878"/>
        </symbol>
        <symbol id="icon-discord" fill="none" viewBox="0 0 17 12">
            <path d="M14.412.995c-1.018-.46-2.109-.8-3.25-.993a.05.05 0 0 0-.052.024c-.14.246-.295.567-.404.82a12.32 12.32 0 0 0-3.65 0 8.245 8.245 0 0 0-.41-.82.051.051 0 0 0-.053-.025c-1.14.193-2.23.533-3.249.994a.047.047 0 0 0-.021.018C1.253 4.063.686 7.037.964 9.974a.053.053 0 0 0 .021.037 13.309 13.309 0 0 0 3.986 1.986.052.052 0 0 0 .056-.017c.308-.413.58-.85.815-1.309a.05.05 0 0 0-.01-.058.05.05 0 0 0-.017-.011 8.755 8.755 0 0 1-1.245-.585.05.05 0 0 1-.005-.084 7.15 7.15 0 0 0 .247-.191.05.05 0 0 1 .052-.007c2.612 1.176 5.44 1.176 8.022 0a.05.05 0 0 1 .052.006c.08.066.163.13.248.192a.05.05 0 0 1-.004.084 8.2 8.2 0 0 1-1.246.584.05.05 0 0 0-.033.05c0 .007.002.014.006.02.24.458.513.894.814 1.308a.05.05 0 0 0 .056.019 13.263 13.263 0 0 0 3.992-1.987.05.05 0 0 0 .022-.036c.332-3.396-.558-6.347-2.36-8.961a.04.04 0 0 0-.021-.019zm-8.18 7.19c-.785 0-1.434-.712-1.434-1.586 0-.875.636-1.587 1.435-1.587.804 0 1.447.718 1.434 1.587 0 .874-.636 1.586-1.434 1.586zm5.305 0c-.787 0-1.435-.712-1.435-1.586 0-.875.635-1.587 1.435-1.587.805 0 1.447.718 1.434 1.587 0 .874-.629 1.586-1.434 1.586z" fill="#787878"/>
        </symbol>
    </defs>
</svg>