<svg style="position: absolute; width: 0; height: 0; overflow: hidden;" version="1.1"
     xmlns="http://www.w3.org/2000/svg">
    <defs>
        <symbol id="icon-right-arrow" viewBox="0 0 8 14">
            <path d="M8 6.84a1.177 1.177 0 0 1-.339.817l-5.648 5.65a1.178 1.178 0 0 1-1.67-1.663L5.16 6.827.343 2.009A1.178 1.178 0 0 1 2.013.347L7.66 5.996c.222.225.344.53.339.845z" />
        </symbol>
        <symbol id="icon-down-arrow" fill="none" viewBox="0 0 14 8">
            <path d="M1 1l6 6 6-6" stroke="#B6B4C1" stroke-width="2" stroke-linecap="round" stroke-linejoin="round"/>
        </symbol>
        <symbol id="icon-info" fill="none" viewBox="0 0 10 11">
            <path d="M10 5.5a5 5 0 1 0-10 0 5 5 0 0 0 10 0zM5 9.611A4.111 4.111 0 1 1 5 1.39a4.111 4.111 0 0 1 0 8.222z" fill="#69696D"/>
            <path d="M5.001 3.59a.442.442 0 1 0 0-.886.442.442 0 0 0 0 .885zM5.782 7.639c-.153-.05-.34-.193-.34-.604V4.341a.073.073 0 0 0-.073-.073H4.295a.274.274 0 0 0-.078.536c.153.05.34.193.34.603v1.628c0 .41-.187.555-.34.604a.277.277 0 0 0-.175.367.274.274 0 0 0 .253.169h1.41a.274.274 0 0 0 .077-.536z" fill="#69696D"/>
        </symbol>
        <symbol id="icon-telegram-plane" viewBox="0 0 32 32">
            <path d="M27.919 6.162l-4.225 19.925c-0.319 1.406-1.15 1.756-2.331 1.094l-6.438-4.744-3.106 2.988c-0.344 0.344-0.631 0.631-1.294 0.631l0.463-6.556 11.931-10.781c0.519-0.463-0.113-0.719-0.806-0.256l-14.75 9.287-6.35-1.988c-1.381-0.431-1.406-1.381 0.288-2.044l24.837-9.569c1.15-0.431 2.156 0.256 1.781 2.013z"></path>
        </symbol>
        <symbol id="icon-twitter-logo" viewBox="0 0 32 32">
            <path d="M32 6.079c-1.178 0.522-2.442 0.876-3.769 1.034 1.356-0.812 2.394-2.1 2.885-3.629-1.272 0.752-2.675 1.298-4.171 1.594-1.198-1.278-2.901-2.074-4.791-2.074-3.625 0-6.565 2.939-6.565 6.563 0 0.514 0.058 1.016 0.17 1.496-5.455-0.274-10.292-2.887-13.529-6.859-0.566 0.968-0.888 2.096-0.888 3.299 0 2.278 1.16 4.287 2.919 5.463-1.076-0.036-2.088-0.332-2.973-0.824v0.082c0 3.179 2.264 5.833 5.265 6.437-0.55 0.148-1.13 0.23-1.73 0.23-0.424 0-0.834-0.042-1.236-0.122 0.836 2.61 3.259 4.507 6.131 4.559-2.246 1.76-5.077 2.805-8.152 2.805-0.53 0-1.052-0.032-1.566-0.090 2.905 1.866 6.355 2.953 10.062 2.953 12.076 0 18.677-10.002 18.677-18.677l-0.022-0.85c1.29-0.92 2.405-2.076 3.283-3.391z"></path>
        </symbol>
        <symbol id="icon-medium-m" viewBox="0 0 32 32">
            <path d="M4.469 8.894c0.037-0.369-0.106-0.738-0.381-0.987l-2.819-3.4v-0.506h8.762l6.775 14.856 5.956-14.856h8.356v0.506l-2.413 2.313c-0.206 0.156-0.313 0.419-0.269 0.675v17c-0.044 0.256 0.063 0.519 0.269 0.675l2.356 2.313v0.506h-11.856v-0.506l2.444-2.369c0.238-0.238 0.238-0.313 0.238-0.675v-13.738l-6.794 17.244h-0.919l-7.9-17.244v11.556c-0.069 0.488 0.094 0.975 0.438 1.325l3.175 3.85v0.506h-9v-0.5l3.175-3.856c0.338-0.35 0.494-0.844 0.406-1.325v-13.363z"></path>
        </symbol>
        <symbol id="icon-copy" viewBox="0 0 13 16">
            <path d="M12.218 0H2.473a.145.145 0 0 0-.146.143v1c0 .078.066.143.146.143h9.018V13.57c0 .079.065.143.145.143h1.019c.08 0 .145-.064.145-.143v-13A.576.576 0 0 0 12.218 0zM9.891 2.286H.58A.576.576 0 0 0 0 2.857v9.477c0 .152.062.296.17.404l3.152 3.094c.04.04.085.072.134.098v.034h.077c.063.024.13.036.2.036H9.89a.576.576 0 0 0 .582-.571V2.857a.576.576 0 0 0-.582-.571zm-6.436 11.86l-1.566-1.539h1.566v1.54zm5.709.568H4.618V12.18a.72.72 0 0 0-.727-.715H1.309V3.571h7.855v11.143z" fill="#D8D8D8"/>
        </symbol>
        <symbol id="icon-success" fill="none" viewBox="0 0 16 16">
            <circle cx="8" cy="8" r="7.46" fill="#47C28B" stroke="#47C28B" stroke-width="1.08"/>
            <path d="M7.05 10.753a.448.448 0 0 1-.308-.129L5.149 9.006a.43.43 0 0 1 .013-.616.43.43 0 0 1 .617.012l1.22 1.26 3.185-4.24a.446.446 0 0 1 .616-.089.446.446 0 0 1 .09.616l-3.48 4.624a.455.455 0 0 1-.321.18H7.05z" fill="#282828"/>
        </symbol>
        <symbol id="icon-failed" fill="none" viewBox="0 0 16 16">
            <path d="M8 15.46A7.46 7.46 0 1 0 8 .54a7.46 7.46 0 0 0 0 14.92z" fill="#DB2438" stroke="#DB2438" stroke-width="1.08"/>
            <rect width="1.001" height="7.083" rx=".5" transform="matrix(.7544 .65641 -.6855 .72806 10.05 5)" fill="#282828"/>
            <rect width=".997" height="7.107" rx=".499" transform="matrix(-.69385 .72011 -.74684 -.665 11 9.911)" fill="#282828"/>
        </symbol>
        <symbol id="icon-arrow-redirect" fill="none" viewBox="0 0 10 10">
            <path d="M1 8.5L8.5 1M1 1h7.5v7.5" stroke="#3E73F0" stroke-width="1.5" stroke-linecap="round" stroke-linejoin="round"/>
        </symbol>
        <symbol id="icon-arrow-redirect-white" fill="none" viewBox="0 0 10 10">
            <path d="M1 8.5L8.5 1M1 1h7.5v7.5" stroke-width="1.5" stroke-linecap="round" stroke-linejoin="round"/>
        </symbol>
        <symbol id="icon-globe" viewBox="0 0 14 14">
            <path d="M7.73 6.231v7.042l1.813-1.811L10.859 14l.956-.496-1.267-2.441h2.446L7.73 6.23z"/>
            <path d="M13.147 7.526c.013-.092.028-.185.038-.28a6.4 6.4 0 0 0 .003-1.265c-.01-.11-.028-.216-.044-.322-.01-.076-.018-.153-.03-.227a6.606 6.606 0 0 0-5.32-5.32C7.698.091 7.61.082 7.524.07c-.087-.013-.19-.03-.28-.04a6.672 6.672 0 0 0-1.26 0c-.097.01-.191.026-.28.04-.09.014-.177.02-.262.035a6.608 6.608 0 0 0-5.32 5.32c-.014.08-.021.162-.034.243-.012.082-.045.212-.057.314-.02.206-.031.42-.031.626 0 .206.011.42.03.624.01.108.029.212.044.318.011.077.018.155.032.232a6.607 6.607 0 0 0 5.32 5.32c.081.014.164.023.245.034.081.011.202.03.305.04.206.02.42.031.625.031h.02v-1.54h-.01a5.042 5.042 0 0 1-.866-.08 13.473 13.473 0 0 1-.534-2.608c.455.028.924.045 1.4.045h.02v-.88h-.02c-.528 0-1.024-.019-1.487-.05A21.27 21.27 0 0 1 5.12 5.12a22.503 22.503 0 0 1 2.973 0v.08c.137.048.264.123.371.222l.542.497c-.007-.244-.021-.48-.037-.717.893.092 1.774.272 2.631.538.05.285.077.575.078.865 0 .29-.025.579-.075.864-.209.068-.43.14-.68.199l.517.474 1.221 1.12a6.57 6.57 0 0 0 .445-1.477c.021-.085.03-.175.041-.259zm-8.4-5.625a16.026 16.026 0 0 0-.428 2.41c-.813.081-1.618.224-2.41.428A5.092 5.092 0 0 1 4.743 1.9h.005zm0 9.415a5.09 5.09 0 0 1-2.843-2.84c.79.205 1.596.348 2.41.429.08.813.223 1.618.426 2.41h.007zM4.24 8.013a13.51 13.51 0 0 1-2.618-.539 4.761 4.761 0 0 1 0-1.732c.853-.265 1.73-.446 2.618-.539a22.8 22.8 0 0 0-.045 1.4c0 .476.017.956.045 1.41zm2.372-3.822c-.48 0-.95.016-1.4.044a13.5 13.5 0 0 1 .539-2.618 4.75 4.75 0 0 1 1.73 0c.263.853.44 1.73.53 2.619-.45-.03-.92-.045-1.4-.045zm2.294.12a16.05 16.05 0 0 0-.427-2.412 5.09 5.09 0 0 1 2.84 2.84 16 16 0 0 0-2.413-.429z"/>
        </symbol>
        <symbol id="icon-docs" viewBox="0 0 16 14">
            <path d="M3.5657 7.90887L5.81143 0.209106C5.85136 0.0720594 5.98446 -0.0155643 6.12607 0.00230555C7.48517 0.174597 14.088 1.01055 15.6431 1.18827C15.8098 1.20737 15.932 1.36327 15.8944 1.5268C14.2754 8.57979 13.7433 14.067 10.7685 13.4211C9.05295 13.0703 2.6838 11.7675 2.6838 11.7675C2.68368 11.7675 0.49812 10.8308 0.00329051 8.41813C-0.0186465 8.31115 0.072306 8.21428 0.180759 8.22722C1.57438 8.39434 6.63398 9.13772 7.9534 9.3322C8.14911 9.36103 8.31796 9.48255 8.40952 9.65792C8.78146 10.3709 9.83567 12.2013 10.8421 12.1717C12.0915 12.135 12.6792 11.0076 14.5902 2.35998C13.0836 2.17622 7.86534 1.43663 6.64689 1.28961L4.75894 8.0596L3.5657 7.90887Z" ></path>
            <path d="M7.48085 2.67871L7.24756 3.43799L13.1035 4.33237L13.2873 3.50554L7.48085 2.67871Z"></path>
            <path d="M6.94851 4.85596L6.71533 5.61524L12.571 6.50962L12.7548 5.68279L6.94851 4.85596Z" ></path>
            <path d="M6.39101 7.00586L6.15771 7.76514L9.56037 8.28486L9.74413 7.45803L6.39101 7.00586Z"></path>
        </symbol>
        <symbol id="icon-bug" viewBox="0 0 14 14">
            <path fill-rule="evenodd" clip-rule="evenodd" d="M7 14A7 7 0 1 0 7 0a7 7 0 0 0 0 14zm3.778-6.899a.25.25 0 0 1-.25.25v.006H9.186a3.79 3.79 0 0 1-.225.7 1.386 1.386 0 0 1 1.249.93l.4 1.154a.251.251 0 0 1-.157.318.368.368 0 0 1-.081.013.247.247 0 0 1-.237-.169l-.4-1.154a.895.895 0 0 0-.842-.6h-.181c-.437.75-1.093 1.342-1.823 1.342S5.503 9.298 5.066 8.55h-.18a.895.895 0 0 0-.844.6l-.4 1.154a.251.251 0 0 1-.473-.162l.399-1.155c.187-.537.68-.905 1.248-.93a3.788 3.788 0 0 1-.224-.699H3.25a.25.25 0 0 1-.25-.25.25.25 0 0 1 .25-.25h1.267c-.006-.056-.006-.112-.006-.168 0-.2.025-.387.068-.568a1.387 1.387 0 0 1-1.011-.899l-.4-1.155a.251.251 0 0 1 .475-.162l.393 1.155a.895.895 0 0 0 .712.587 2.39 2.39 0 0 1 .824-.937A1.364 1.364 0 0 1 6.889 3c.749 0 1.36.612 1.348 1.355 0 .118-.012.237-.043.35.355.23.636.555.823.935a.882.882 0 0 0 .712-.586l.4-1.155a.251.251 0 0 1 .474.162l-.4 1.155c-.156.462-.549.799-1.01.899.043.18.068.374.068.568 0 .056 0 .112-.006.168h1.273a.25.25 0 0 1 .25.25zM6.888 3.5a.863.863 0 0 0-.86.862c0 .037 0 .075.006.112a2.419 2.419 0 0 1 1.71 0c.006-.037.006-.075.006-.112a.863.863 0 0 0-.861-.862z" />
        </symbol>
        <symbol id="icon-testnet" viewBox="0 0 14 14">
            <path fill-rule="evenodd" clip-rule="evenodd" d="M7 14A7 7 0 1 0 7 0a7 7 0 0 0 0 14zM4.93 3.111h4.222a.264.264 0 1 1 0 .528h-.235v6.037a1.879 1.879 0 0 1-3.757 0V3.64h-.23a.264.264 0 1 1 0-.528zm2.076 2.777c.726-.1 1.246-.757 1.386-.956V3.639H5.686v2.72a3.451 3.451 0 0 1 1.32-.47z" />
        </symbol>
        <symbol id="icon-analytics" viewBox="0 0 14 14">
            <path fill-rule="evenodd" clip-rule="evenodd" d="M14 7A7 7 0 1 1 0 7a7 7 0 0 1 14 0zM6.946 4.012h1.037c.087 0 .157.086.157.156v3.933c0 .087-.07.157-.157.157H6.946c-.086 0-.156-.087-.156-.157V4.168c0-.086.07-.156.156-.156zm-.92 1.565H4.99a.157.157 0 0 0-.157.157V8.1c0 .07.07.157.157.157h1.037c.086 0 .156-.07.156-.157V5.734c0-.07-.07-.157-.156-.157zm2.877-.587H9.94c.087 0 .157.087.157.157v2.955c0 .086-.07.156-.157.156H8.903c-.086 0-.156-.086-.156-.156V5.147c0-.087.07-.157.156-.157zM4.207 8.786h6.692a.156.156 0 0 1 .156.157v.782a.156.156 0 0 1-.156.157H3.267a.157.157 0 0 1-.156-.157V3.268c0-.087.07-.157.156-.157h.783a.157.157 0 0 1 .157.157v5.518z"/>
        </symbol>
        <symbol id="icon-governance" viewBox="0 0 14 14">
            <path fill-rule="evenodd" clip-rule="evenodd" d="M7 14A7 7 0 1 0 7 0a7 7 0 0 0 0 14zm3.36-3.16v-3.2H3.64v3.2h2.24v-.64h2.08v.64h2.4zM8.286 6.033c.327.27.534.623.626 1.024 0 0 .336-.057.336.263H4.773c0-.32.307-.276.307-.276.098-.402.306-.732.626-1.002.23-.191.492-.274.783-.367.11-.035.223-.071.341-.115h.01v-2.4h.32v.212c.16-.09.435-.137.639-.137.061 0 .118.01.204.03.094.02.186.044.278.072.102.03.193.056.282.073.085.021.157.03.216.03a.59.59 0 0 0 .187-.03l.114-.029V4.54l-.082.015c-.098.018-.143.026-.219.026a.97.97 0 0 1-.214-.027 3.974 3.974 0 0 1-.283-.075 9.852 9.852 0 0 0-.286-.073c-.09-.02-.166-.029-.226-.029a.658.658 0 0 0-.141.022c-.067.014-.13.034-.201.058l-.184.068-.084.023V5.56h.002c.123.046.242.082.356.117.286.089.542.168.768.356z" />
        </symbol>
        <symbol id="icon-discord" viewBox="0 0 11 14">
            <path d="M6.678 6.003c-.356 0-.637.306-.637.687 0 .38.288.687.637.687.356 0 .637-.306.637-.687 0-.381-.287-.687-.637-.687zm-2.28 0c-.355 0-.636.306-.636.687 0 .38.287.687.637.687.356 0 .637-.306.637-.687.006-.381-.281-.687-.637-.687z" />
            <path d="M9.713.807H1.344c-.705 0-1.28.574-1.28 1.28v8.37c0 .705.575 1.28 1.28 1.28h7.083l-.331-1.143.8.737.755.693 1.35 1.168V2.087A1.292 1.292 0 0 0 9.712.807zm-2.41 8.088s-.225-.269-.413-.5c.819-.231 1.13-.737 1.13-.737-.255.169-.499.287-.717.369a4.375 4.375 0 0 1-2.523.262 4.755 4.755 0 0 1-.919-.269 3.66 3.66 0 0 1-.456-.212c-.018-.012-.037-.019-.056-.031-.012-.006-.019-.013-.025-.013a2.19 2.19 0 0 1-.175-.106s.3.494 1.093.73c-.187.238-.418.513-.418.513-1.38-.044-1.905-.943-1.905-.943 0-1.992.9-3.61.9-3.61.899-.668 1.748-.65 1.748-.65l.063.075c-1.125.319-1.637.812-1.637.812s.138-.075.369-.175a4.894 4.894 0 0 1 1.417-.393c.038-.006.07-.013.107-.013.38-.05.812-.062 1.261-.012.594.069 1.23.244 1.88.593 0 0-.493-.468-1.555-.787l.087-.1s.856-.018 1.75.65c0 0 .899 1.618.899 3.61 0-.006-.525.893-1.905.937z" />
        </symbol>
        <symbol fill="none" viewBox="0 0 20 20" id="icon-checkbox-square">
            <path fill-rule="evenodd" clip-rule="evenodd" d="M20 2C20 0.895431 19.1046 0 18 0H2C0.895431 0 0 0.895431 0 2V18C0 19.1046 0.895431 20 2 20H18C19.1046 20 20 19.1046 20 18V2ZM7.17219 13.2421C7.95328 14.0232 9.21969 14.0231 10.0007 13.242L14.9496 8.29238C15.34 7.90191 15.34 7.26889 14.9496 6.87844C14.5591 6.48796 13.926 6.48799 13.5355 6.87851L10.0007 10.4139C9.21969 11.1951 7.95326 11.1951 7.17217 10.414L6.46451 9.70639C6.07404 9.31592 5.44097 9.31592 5.05051 9.70639C4.66004 10.0969 4.66004 10.7299 5.05051 11.1204L7.17219 13.2421Z" fill="#C73238"></path>
        </symbol>
    </defs>
</svg>