<svg width="24" height="24" viewBox="0 0 24 24" fill="none" xmlns="http://www.w3.org/2000/svg">
<path d="M24 12C24 18.6274 18.6274 24 12 24C5.37258 24 0 18.6274 0 12C0 5.37258 5.37258 0 12 0C18.6274 0 24 5.37258 24 12Z" fill="white"/>
<path d="M11.7631 1.8L11.6255 2.27172V15.9586L11.7631 16.0972L18.0578 12.3418L11.7631 1.8Z" fill="#343434"/>
<path d="M11.7618 1.8L5.46692 12.3418L11.7618 16.0972V9.45393V1.8Z" fill="#8C8C8C"/>
<path d="M11.7632 17.3006L11.6856 17.3961V22.2715L11.7632 22.5L18.0617 13.5471L11.7632 17.3006Z" fill="#3C3C3B"/>
<path d="M11.7618 22.5V17.3006L5.46692 13.5471L11.7618 22.5Z" fill="#8C8C8C"/>
<path d="M11.7656 16.097L18.0603 12.3415L11.7656 9.45371V16.097Z" fill="#141414"/>
<path d="M5.46692 12.3418L11.7618 16.0972V9.45393L5.46692 12.3418Z" fill="#393939"/>
</svg>
