<svg width="32" height="32" viewBox="0 0 32 32" fill="none" xmlns="http://www.w3.org/2000/svg">
<circle cx="16" cy="16" r="16" fill="white"/>
<g clip-path="url(#clip0_19_600)">
<path d="M14.4513 8.97896C14.2143 8.94509 14.203 8.9338 14.3159 8.92251C14.5304 8.88864 15.0271 8.9338 15.3771 9.01283C16.1899 9.20474 16.9237 9.70148 17.7027 10.5708L17.9059 10.8078L18.1994 10.7627C19.4525 10.5595 20.7395 10.7175 21.812 11.2142C22.1055 11.3497 22.5684 11.6207 22.6248 11.6884C22.6474 11.711 22.6813 11.8577 22.7039 12.0045C22.7829 12.5351 22.749 12.9302 22.5797 13.235C22.4894 13.4044 22.4894 13.4495 22.5458 13.5963C22.591 13.7092 22.7264 13.7882 22.8506 13.7882C23.1216 13.7882 23.4038 13.3592 23.5393 12.7609L23.5957 12.5238L23.6973 12.6367C24.2731 13.2802 24.7246 14.1721 24.7924 14.8043L24.815 14.9736L24.7134 14.8268C24.544 14.5672 24.386 14.3978 24.1715 14.2511C23.7876 13.9914 23.3812 13.9124 22.3087 13.856C21.3378 13.7995 20.7847 13.7205 20.2428 13.5399C19.317 13.235 18.8429 12.8399 17.7478 11.3836C17.2624 10.7401 16.9576 10.3901 16.6528 10.0966C15.9867 9.45311 15.3206 9.11443 14.4513 8.97896Z" fill="#FF007A"/>
<path d="M22.8615 10.4101C22.8841 9.98112 22.9405 9.69889 23.0647 9.43923C23.1099 9.33763 23.155 9.24731 23.1663 9.24731C23.1776 9.24731 23.155 9.32634 23.1212 9.41666C23.0309 9.66502 23.0196 10.015 23.076 10.4101C23.155 10.9181 23.1889 10.9859 23.7308 11.5391C23.9792 11.7987 24.2727 12.1261 24.3856 12.2616L24.5775 12.5099L24.3856 12.3293C24.1485 12.1035 23.6066 11.6745 23.4824 11.6181C23.4034 11.5729 23.3921 11.5729 23.3357 11.6294C23.2905 11.6745 23.2792 11.7423 23.2792 12.0697C23.2679 12.5777 23.2002 12.8938 23.0308 13.2212C22.9405 13.3905 22.9292 13.3566 23.0083 13.1647C23.0647 13.018 23.076 12.9502 23.076 12.4648C23.076 11.4826 22.9631 11.2455 22.2745 10.8504C22.1051 10.7488 21.8116 10.602 21.6423 10.523C21.4616 10.444 21.3262 10.3763 21.3374 10.3763C21.36 10.3537 22.0261 10.5456 22.2858 10.6585C22.6809 10.8165 22.7486 10.8278 22.7938 10.8165C22.8276 10.7827 22.8502 10.6924 22.8615 10.4101Z" fill="#FF007A"/>
<path d="M14.9139 12.095C14.4397 11.4402 14.1349 10.4241 14.2026 9.66774L14.2252 9.43066L14.3381 9.45324C14.5413 9.48711 14.8913 9.62258 15.0606 9.72419C15.5122 9.99513 15.7154 10.3677 15.9073 11.2934C15.9638 11.5644 16.0428 11.8805 16.0767 11.9821C16.1331 12.1514 16.3476 12.5465 16.5282 12.7949C16.6524 12.9755 16.5734 13.0658 16.2912 13.0433C15.8622 12.9981 15.2864 12.603 14.9139 12.095Z" fill="#FF007A"/>
<path d="M22.2858 17.0033C20.0505 16.1002 19.2603 15.3212 19.2603 14.0004C19.2603 13.8084 19.2715 13.6504 19.2715 13.6504C19.2828 13.6504 19.3619 13.7181 19.4635 13.7972C19.915 14.1584 20.4231 14.3165 21.8342 14.5197C22.6584 14.6439 23.1325 14.7342 23.5615 14.8809C24.9275 15.3325 25.7742 16.2582 25.9774 17.5114C26.0339 17.8726 26 18.5613 25.9097 18.9225C25.8307 19.2048 25.6049 19.7241 25.5484 19.7354C25.5371 19.7354 25.5146 19.6789 25.5146 19.5886C25.492 19.1144 25.2549 18.6629 24.8598 18.3129C24.3856 17.9065 23.776 17.6017 22.2858 17.0033Z" fill="#FF007A"/>
<path d="M20.7053 17.3784C20.6827 17.209 20.6262 16.9945 20.5924 16.9042L20.5359 16.7349L20.6375 16.859C20.7843 17.0284 20.8972 17.2316 20.9988 17.5138C21.0778 17.7283 21.0778 17.7961 21.0778 18.146C21.0778 18.4847 21.0665 18.5637 20.9988 18.7557C20.8859 19.0605 20.7504 19.275 20.5246 19.512C20.1182 19.9298 19.5876 20.1555 18.8312 20.2571C18.6958 20.2684 18.3119 20.3023 17.9732 20.3249C17.1265 20.37 16.5621 20.4604 16.0541 20.641C15.9863 20.6636 15.9186 20.6861 15.9073 20.6749C15.8847 20.6523 16.2347 20.4491 16.5169 20.3136C16.912 20.1217 17.3185 20.0201 18.2103 19.862C18.6506 19.7943 19.1022 19.704 19.2151 19.6588C20.3327 19.3088 20.8859 18.4396 20.7053 17.3784Z" fill="#FF007A"/>
<path d="M21.7326 19.1962C21.4391 18.5527 21.3713 17.943 21.5294 17.3673C21.552 17.3108 21.5745 17.2544 21.5971 17.2544C21.6197 17.2544 21.6874 17.2883 21.7552 17.3334C21.8906 17.4237 22.1729 17.5818 22.8954 17.9769C23.8098 18.4736 24.3292 18.8575 24.6904 19.2978C25.0065 19.6816 25.1984 20.1219 25.2888 20.6638C25.3452 20.9686 25.3113 21.7024 25.2323 22.0072C24.9839 22.9668 24.4195 23.7345 23.5953 24.1748C23.4712 24.2425 23.3696 24.2877 23.3583 24.2877C23.347 24.2877 23.3921 24.1748 23.4599 24.0393C23.7308 23.4635 23.7647 22.9104 23.5615 22.2894C23.4373 21.9056 23.1776 21.4427 22.6583 20.6638C22.0374 19.7606 21.8906 19.5236 21.7326 19.1962Z" fill="#FF007A"/>
<path d="M13.3219 22.6513C14.1573 21.9513 15.1847 21.4546 16.133 21.2965C16.5394 21.2288 17.2167 21.2514 17.5893 21.353C18.1876 21.511 18.7295 21.8497 19.0118 22.2674C19.2827 22.6738 19.4069 23.0238 19.5311 23.8028C19.5762 24.1076 19.6327 24.4237 19.644 24.4914C19.7343 24.8978 19.9149 25.2139 20.1407 25.3833C20.4907 25.6429 21.1003 25.6542 21.6986 25.4284C21.8002 25.3946 21.8905 25.3607 21.8905 25.372C21.9131 25.3946 21.6083 25.5978 21.4051 25.6994C21.1229 25.8461 20.8971 25.8913 20.5923 25.8913C20.0504 25.8913 19.5875 25.6091 19.215 25.0446C19.1359 24.9317 18.9779 24.6043 18.8424 24.2995C18.4473 23.3851 18.2441 23.1141 17.7812 22.8093C17.3748 22.5497 16.8555 22.4932 16.4604 22.6851C15.941 22.9335 15.8056 23.5996 16.1668 24.006C16.3136 24.1753 16.5845 24.3108 16.8103 24.3447C17.228 24.4011 17.5893 24.0737 17.5893 23.656C17.5893 23.3851 17.4877 23.227 17.2167 23.1028C16.8555 22.9448 16.4604 23.1254 16.4716 23.4754C16.4716 23.6221 16.5394 23.7125 16.6861 23.7802C16.7765 23.8253 16.7765 23.8253 16.7087 23.8141C16.3813 23.7463 16.3023 23.3399 16.562 23.0802C16.8781 22.7641 17.5441 22.8996 17.7699 23.3399C17.8602 23.5205 17.8715 23.8818 17.7925 24.1076C17.6006 24.6043 17.0587 24.864 16.5055 24.7172C16.133 24.6156 15.9749 24.514 15.5233 24.0511C14.7331 23.2383 14.4283 23.0802 13.2993 22.9109L13.0848 22.877L13.3219 22.6513Z" fill="#FF007A"/>
<path fill-rule="evenodd" clip-rule="evenodd" d="M7.38385 4.4852C10.0143 7.68009 14.0672 12.6474 14.2704 12.9184C14.4397 13.1441 14.372 13.3586 14.0897 13.5167C13.9317 13.607 13.6043 13.6973 13.4462 13.6973C13.2656 13.6973 13.0511 13.607 12.9044 13.4602C12.8027 13.3586 12.3625 12.7151 11.369 11.1685C10.6126 9.98312 9.96912 9.00094 9.95783 8.98965C9.91267 8.96708 9.91267 8.96708 11.29 11.4282C12.1593 12.9748 12.4415 13.528 12.4415 13.5957C12.4415 13.7425 12.3963 13.8215 12.2157 14.0247C11.9109 14.3634 11.7754 14.7472 11.6738 15.5488C11.5609 16.4406 11.2561 17.0728 10.3868 18.1453C9.8788 18.7775 9.79978 18.8904 9.67559 19.1501C9.51754 19.4662 9.47238 19.6468 9.44981 20.0532C9.42723 20.4822 9.47238 20.7532 9.59657 21.1596C9.70946 21.5208 9.83364 21.7579 10.1385 22.2208C10.3981 22.6272 10.5562 22.932 10.5562 23.0449C10.5562 23.1352 10.5787 23.1352 10.9852 23.0449C11.956 22.8191 12.7576 22.4353 13.1979 21.9611C13.4688 21.6676 13.5366 21.5096 13.5366 21.1031C13.5366 20.8435 13.5253 20.787 13.4575 20.629C13.3446 20.3806 13.1301 20.1774 12.6673 19.8613C12.0576 19.4436 11.798 19.1049 11.7303 18.6533C11.6738 18.2695 11.7415 18.0099 12.0802 17.2986C12.4302 16.5648 12.5205 16.26 12.577 15.5149C12.6108 15.0408 12.6673 14.8488 12.8027 14.7021C12.9495 14.544 13.0737 14.4876 13.4237 14.4424C13.9994 14.3634 14.372 14.2166 14.6655 13.9344C14.9251 13.6973 15.038 13.4602 15.0493 13.1103L15.0606 12.8506L14.9139 12.6926C14.3833 12.0829 7.03388 3.99976 7.00001 3.99976C6.98872 3.99976 7.16935 4.21425 7.38385 4.4852ZM10.8497 20.5387C10.9739 20.3242 10.9061 20.0532 10.7029 19.9178C10.511 19.7936 10.2175 19.85 10.2175 20.0194C10.2175 20.0645 10.2401 20.1097 10.3078 20.1323C10.4094 20.1887 10.4207 20.2451 10.3417 20.3693C10.2626 20.4935 10.2626 20.6064 10.3642 20.6854C10.5223 20.8096 10.7368 20.7419 10.8497 20.5387Z" fill="#FF007A"/>
<path fill-rule="evenodd" clip-rule="evenodd" d="M15.4218 14.6013C15.1509 14.6804 14.8912 14.9739 14.8122 15.2674C14.767 15.448 14.7896 15.7754 14.8686 15.877C14.9928 16.0351 15.1057 16.0802 15.4218 16.0802C16.0427 16.0802 16.5733 15.8093 16.6298 15.4819C16.6862 15.211 16.4492 14.8384 16.1218 14.6691C15.9524 14.5787 15.6025 14.5449 15.4218 14.6013ZM16.1443 15.1658C16.2347 15.0303 16.2008 14.8836 16.0314 14.782C15.7266 14.59 15.2638 14.7481 15.2638 15.0416C15.2638 15.1884 15.5009 15.3464 15.7266 15.3464C15.8734 15.3464 16.0766 15.2561 16.1443 15.1658Z" fill="#FF007A"/>
</g>
<defs>
<clipPath id="clip0_19_600">
<rect width="19" height="21.8788" fill="white" transform="translate(7 4)"/>
</clipPath>
</defs>
</svg>
