<svg width="18" height="17" viewBox="0 0 18 17" fill="none" xmlns="http://www.w3.org/2000/svg">
<path d="M16.2482 1L9.98889 5.78413L11.153 2.96071L16.2482 1Z" fill="#E17726" stroke="#E17726" stroke-width="0.0336733" stroke-linecap="round" stroke-linejoin="round"/>
<path d="M1.78278 1L8.00394 5.82334L6.89711 2.96071L1.78278 1Z" fill="#E27625" stroke="#E27625" stroke-width="0.0336733" stroke-linecap="round" stroke-linejoin="round"/>
<path d="M13.9961 12.078L12.3168 14.7053L15.9044 15.7249L16.9159 12.1368L13.9961 12.078Z" fill="#E27625" stroke="#E27625" stroke-width="0.0336733" stroke-linecap="round" stroke-linejoin="round"/>
<path d="M1.13312 12.1368L2.14453 15.7249L5.71312 14.7053L4.05287 12.078L1.13312 12.1368Z" fill="#E27625" stroke="#E27625" stroke-width="0.0336733" stroke-linecap="round" stroke-linejoin="round"/>
<path d="M5.52316 7.64681L4.53082 9.19577L8.06124 9.35263L7.94674 5.43121L5.52316 7.64681Z" fill="#E27625" stroke="#E27625" stroke-width="0.0336733" stroke-linecap="round" stroke-linejoin="round"/>
<path d="M12.5263 7.647L10.0646 5.39218L9.98822 9.35281L13.5186 9.19595L12.5263 7.647Z" fill="#E27625" stroke="#E27625" stroke-width="0.0336733" stroke-linecap="round" stroke-linejoin="round"/>
<path d="M5.71417 14.7055L7.85151 13.6468L6.00042 12.1566L5.71417 14.7055Z" fill="#E27625" stroke="#E27625" stroke-width="0.0336733" stroke-linecap="round" stroke-linejoin="round"/>
<path d="M10.1985 13.6468L12.3168 14.7055L12.0306 12.1566L10.1985 13.6468Z" fill="#E27625" stroke="#E27625" stroke-width="0.0336733" stroke-linecap="round" stroke-linejoin="round"/>
<path d="M12.3167 14.7057L10.1985 13.6469L10.3702 15.0586L10.3512 15.6664L12.3167 14.7057Z" fill="#D5BFB2" stroke="#D5BFB2" stroke-width="0.0336733" stroke-linecap="round" stroke-linejoin="round"/>
<path d="M5.71387 14.7053L7.69853 15.666L7.67945 15.0582L7.8512 13.6465L5.71387 14.7053Z" fill="#D5BFB2" stroke="#D5BFB2" stroke-width="0.0336733" stroke-linecap="round" stroke-linejoin="round"/>
<path d="M7.73691 11.2154L5.96216 10.686L7.20258 10.0978L7.73691 11.2154Z" fill="#233447" stroke="#233447" stroke-width="0.0336733" stroke-linecap="round" stroke-linejoin="round"/>
<path d="M10.3128 11.2154L10.8281 10.0978L12.0876 10.686L10.3128 11.2154Z" fill="#233447" stroke="#233447" stroke-width="0.0336733" stroke-linecap="round" stroke-linejoin="round"/>
<path d="M5.7139 14.7047L6.01923 12.0773L4.05365 12.1361L5.7139 14.7047Z" fill="#CC6228" stroke="#CC6228" stroke-width="0.0336733" stroke-linecap="round" stroke-linejoin="round"/>
<path d="M12.0303 12.0773L12.3165 14.7047L13.9959 12.1361L12.0303 12.0773Z" fill="#CC6228" stroke="#CC6228" stroke-width="0.0336733" stroke-linecap="round" stroke-linejoin="round"/>
<path d="M13.519 9.19525L9.98859 9.35211L10.313 11.2148L10.8283 10.0972L12.0878 10.6854L13.519 9.19525Z" fill="#CC6228" stroke="#CC6228" stroke-width="0.0336733" stroke-linecap="round" stroke-linejoin="round"/>
<path d="M5.96213 10.6854L7.20255 10.0972L7.73688 11.2148L8.0613 9.35211L4.53088 9.19525L5.96213 10.6854Z" fill="#CC6228" stroke="#CC6228" stroke-width="0.0336733" stroke-linecap="round" stroke-linejoin="round"/>
<path d="M4.53064 9.19525L6.00006 12.1559L5.96189 10.6854L4.53064 9.19525Z" fill="#E27525" stroke="#E27525" stroke-width="0.0336733" stroke-linecap="round" stroke-linejoin="round"/>
<path d="M12.0872 10.6853L12.0299 12.1558L13.5184 9.19513L12.0872 10.6853Z" fill="#E27525" stroke="#E27525" stroke-width="0.0336733" stroke-linecap="round" stroke-linejoin="round"/>
<path d="M8.06093 9.35226L7.73651 11.2149L8.13726 13.4305L8.23268 10.5091L8.06093 9.35226Z" fill="#E27525" stroke="#E27525" stroke-width="0.0336733" stroke-linecap="round" stroke-linejoin="round"/>
<path d="M9.98834 9.35226L9.81659 10.5091L9.89292 13.4305L10.3128 11.2149L9.98834 9.35226Z" fill="#E27525" stroke="#E27525" stroke-width="0.0336733" stroke-linecap="round" stroke-linejoin="round"/>
<path d="M10.3128 11.2153L9.89301 13.4309L10.1983 13.6466L12.0303 12.1565L12.0876 10.6859L10.3128 11.2153Z" fill="#F5841F" stroke="#F5841F" stroke-width="0.0336733" stroke-linecap="round" stroke-linejoin="round"/>
<path d="M5.96216 10.6859L6.00032 12.1565L7.85141 13.6466L8.13766 13.4309L7.73691 11.2153L5.96216 10.6859Z" fill="#F5841F" stroke="#F5841F" stroke-width="0.0336733" stroke-linecap="round" stroke-linejoin="round"/>
<path d="M10.351 15.6661L10.3701 15.0583L10.1983 14.921H7.83199L7.67933 15.0583L7.69841 15.6661L5.71375 14.7054L6.40074 15.2936L7.81291 16.2935H10.2174L11.6296 15.2936L12.3166 14.7054L10.351 15.6661Z" fill="#C0AC9D" stroke="#C0AC9D" stroke-width="0.0336733" stroke-linecap="round" stroke-linejoin="round"/>
<path d="M10.1984 13.6466L9.89311 13.431H8.13744L7.85119 13.6466L7.67944 15.0584L7.83211 14.9211H10.1984L10.3702 15.0584L10.1984 13.6466Z" fill="#161616" stroke="#161616" stroke-width="0.0336733" stroke-linecap="round" stroke-linejoin="round"/>
<path d="M16.5152 6.09796L17.0495 3.45101L16.248 1.00012L10.1986 5.62739L12.5268 7.64692L15.8091 8.62727L16.5343 7.76456L16.2289 7.52928L16.7251 7.05871L16.3434 6.74499L16.8396 6.35285L16.5152 6.09796Z" fill="#763E1A" stroke="#763E1A" stroke-width="0.0336733" stroke-linecap="round" stroke-linejoin="round"/>
<path d="M1 3.45119L1.53433 6.09814L1.19083 6.35304L1.687 6.74518L1.30533 7.05889L1.82058 7.52946L1.49617 7.76474L2.22133 8.62746L5.52275 7.6471L7.85092 5.62758L1.78242 1.00031L1 3.45119Z" fill="#763E1A" stroke="#763E1A" stroke-width="0.0336733" stroke-linecap="round" stroke-linejoin="round"/>
<path d="M15.8091 8.62726L12.5267 7.64691L13.5191 9.19587L12.0306 12.1565L13.9962 12.1369H16.9159L15.8091 8.62726Z" fill="#F5841F" stroke="#F5841F" stroke-width="0.0336733" stroke-linecap="round" stroke-linejoin="round"/>
<path d="M5.52241 7.64691L2.22099 8.62726L1.13324 12.1369H4.05299L5.99949 12.1565L4.53007 9.19587L5.52241 7.64691Z" fill="#F5841F" stroke="#F5841F" stroke-width="0.0336733" stroke-linecap="round" stroke-linejoin="round"/>
<path d="M9.98884 9.35263L10.1988 5.62729L11.1529 2.96072H6.89734L7.85151 5.62729L8.06142 9.35263L8.13776 10.5291V13.4309H9.89342V10.5291L9.98884 9.35263Z" fill="#F5841F" stroke="#F5841F" stroke-width="0.0336733" stroke-linecap="round" stroke-linejoin="round"/>
</svg>
