<svg width="32" height="32" viewBox="0 0 32 32" fill="none" xmlns="http://www.w3.org/2000/svg">
<path d="M16.1811 31.9981C24.8811 31.9981 31.9339 25.0522 31.9339 16.4839C31.9339 7.91567 24.8811 0.969727 16.1811 0.969727C7.48101 0.969727 0.428223 7.91567 0.428223 16.4839C0.428223 25.0522 7.48101 31.9981 16.1811 31.9981Z" fill="#2E3148"/>
<path d="M16.1806 25.4856C21.2288 25.4856 25.3211 21.4552 25.3211 16.4835C25.3211 11.5118 21.2288 7.48145 16.1806 7.48145C11.1324 7.48145 7.04004 11.5118 7.04004 16.4835C7.04004 21.4552 11.1324 25.4856 16.1806 25.4856Z" fill="#2E3148"/>
<path d="M16.213 2.94824C14.5126 2.94824 13.1338 9.02234 13.1338 16.5152C13.1338 24.0081 14.5126 30.0822 16.213 30.0822C17.9135 30.0822 19.2923 24.0081 19.2923 16.5152C19.2923 9.02234 17.9135 2.94824 16.213 2.94824ZM16.4257 29.3165C16.2312 29.572 16.0367 29.3803 16.0367 29.3803C15.2536 28.4867 14.8621 26.8266 14.8621 26.8266C13.4923 22.4852 13.8183 13.1639 13.8183 13.1639C14.4621 5.76376 15.6331 4.01562 16.0316 3.62751C16.0723 3.5879 16.1258 3.5637 16.1828 3.55916C16.2399 3.55462 16.2967 3.57003 16.3433 3.60269C16.9216 4.00619 17.4065 5.69363 17.4065 5.69363C18.8385 10.9289 18.7088 15.8449 18.7088 15.8449C18.8385 20.1225 17.9912 24.9107 17.9912 24.9107C17.339 28.5498 16.4257 29.3165 16.4257 29.3165Z" fill="white"/>
<path d="M28.1635 9.76552C27.3168 8.31238 21.2815 10.1575 14.679 13.8861C8.07652 17.6147 3.41924 21.8156 4.26523 23.2681C5.1112 24.7206 11.1472 22.8761 17.7497 19.1475C24.3522 15.4189 29.0094 11.218 28.1635 9.76552ZM5.04632 23.0687C4.72219 23.0285 4.79541 22.7662 4.79541 22.7662C5.19303 21.6527 6.4583 20.492 6.4583 20.492C9.60169 17.1613 17.9741 12.8013 17.9741 12.8013C24.8114 9.66846 26.9351 9.80063 27.4739 9.94671C27.5292 9.96189 27.5772 9.99587 27.6095 10.0427C27.6418 10.0894 27.6562 10.1459 27.6503 10.2021C27.5855 10.8972 26.3375 12.1507 26.3375 12.1507C22.4419 15.9807 18.0474 18.3168 18.0474 18.3168C14.3444 20.557 9.70552 22.2151 9.70552 22.2151C6.17572 23.4678 5.04632 23.0687 5.04632 23.0687Z" fill="white"/>
<path d="M28.1327 23.3153C28.9859 21.866 24.3403 17.6459 17.761 13.8892C11.1817 10.1326 5.14713 8.26464 4.2947 9.71642C3.44229 11.1682 8.08714 15.3858 14.6702 19.1425C21.2532 22.8991 27.2803 24.7671 28.1327 23.3153ZM4.86005 10.2764C4.73402 9.98212 5.00007 9.91128 5.00007 9.91128C6.17787 9.69218 7.83232 10.1914 7.83232 10.1914C12.3332 11.2008 20.359 16.152 20.359 16.152C26.5382 20.4104 27.4859 22.2861 27.628 22.8186C27.6424 22.8732 27.6368 22.9311 27.6122 22.982C27.5874 23.0329 27.5453 23.0737 27.4931 23.097C26.8488 23.3875 25.123 22.9546 25.123 22.9546C19.804 21.55 15.5501 18.9765 15.5501 18.9765C11.7279 16.9462 7.9485 13.8223 7.9485 13.8223C5.07668 11.441 4.86093 10.2796 4.86093 10.2796L4.86005 10.2764Z" fill="white"/>
<path d="M16.1807 18.0794C17.0758 18.0794 17.8014 17.3648 17.8014 16.4833C17.8014 15.6018 17.0758 14.8872 16.1807 14.8872C15.2857 14.8872 14.5601 15.6018 14.5601 16.4833C14.5601 17.3648 15.2857 18.0794 16.1807 18.0794Z" fill="white"/>
<path d="M22.8257 11.3118C23.3449 11.3118 23.7657 10.883 23.7657 10.3542C23.7657 9.82524 23.3449 9.39648 22.8257 9.39648C22.3066 9.39648 21.8857 9.82524 21.8857 10.3542C21.8857 10.883 22.3066 11.3118 22.8257 11.3118Z" fill="white"/>
<path d="M7.33357 14.636C7.85271 14.636 8.27358 14.2073 8.27358 13.6784C8.27358 13.1495 7.85271 12.7207 7.33357 12.7207C6.81443 12.7207 6.39355 13.1495 6.39355 13.6784C6.39355 14.2073 6.81443 14.636 7.33357 14.636Z" fill="white"/>
<path d="M14.4918 26.385C15.011 26.385 15.4318 25.9563 15.4318 25.4274C15.4318 24.8985 15.011 24.4697 14.4918 24.4697C13.9726 24.4697 13.5518 24.8985 13.5518 25.4274C13.5518 25.9563 13.9726 26.385 14.4918 26.385Z" fill="white"/>
</svg>
