<svg width="32" height="32" viewBox="0 0 32 32" fill="none" xmlns="http://www.w3.org/2000/svg">
<g clip-path="url(#clip0_468_8982)">
<path fill-rule="evenodd" clip-rule="evenodd" d="M16 0C24.8372 0 32 7.16282 32 16C32 24.8372 24.8372 32 16 32C7.16282 32 0 24.8372 0 16C0 7.16282 7.16282 0 16 0Z" fill="#F0B90B"/>
<path d="M8.79359 16.0002L8.80513 20.2309L12.4 22.3463V24.8232L6.70128 21.4809V14.763L8.79359 16.0002ZM8.79359 11.7694V14.2348L6.7 12.9963V10.5309L8.79359 9.29248L10.8974 10.5309L8.79359 11.7694ZM13.9013 10.5309L15.9949 9.29248L18.0987 10.5309L15.9949 11.7694L13.9013 10.5309Z" fill="white"/>
<path d="M10.3064 19.354V16.8771L12.4 18.1155V20.5809L10.3064 19.354ZM13.9013 23.2335L15.9949 24.472L18.0987 23.2335V25.6989L15.9949 26.9373L13.9013 25.6989V23.2335ZM21.1013 10.5309L23.1948 9.29248L25.2987 10.5309V12.9963L23.1948 14.2348V11.7694L21.1013 10.5309ZM23.1948 20.2309L23.2064 16.0002L25.3 14.7617V21.4796L19.6013 24.8219V22.345L23.1948 20.2309Z" fill="white"/>
<path d="M21.6936 19.3538L19.6 20.5808V18.1154L21.6936 16.877V19.3538Z" fill="white"/>
<path d="M21.6936 12.6463L21.7051 15.1232L18.1 17.2386V21.4796L16.0064 22.7066L13.9128 21.4796V17.2386L10.3077 15.1232V12.6463L12.4103 11.4079L15.9936 13.5335L19.5987 11.4079L21.7026 12.6463H21.6936ZM10.3064 8.41683L15.9949 5.06299L21.6936 8.41683L19.6 9.65529L15.9949 7.52965L12.4 9.65529L10.3064 8.41683Z" fill="white"/>
</g>
<defs>
<clipPath id="clip0_468_8982">
<rect width="32" height="32" fill="white"/>
</clipPath>
</defs>
</svg>
