<svg width="32" height="32" viewBox="0 0 32 32" fill="none" xmlns="http://www.w3.org/2000/svg">
<circle cx="16" cy="16" r="12.6316" fill="#8C8C8C"/>
<path d="M32 16C32 18.1012 31.5861 20.1817 30.7821 22.1229C29.978 24.0641 28.7994 25.828 27.3137 27.3137C25.828 28.7994 24.0641 29.978 22.1229 30.7821C20.1817 31.5861 18.1011 32 16 32C13.8988 32 11.8183 31.5861 9.87706 30.7821C7.93585 29.978 6.17203 28.7994 4.68629 27.3137C3.20055 25.828 2.022 24.0641 1.21793 22.1229C0.413852 20.1817 -1.83688e-07 18.1011 0 16H3.8348C3.8348 17.5976 4.14946 19.1795 4.76082 20.6554C5.37218 22.1314 6.26826 23.4725 7.3979 24.6021C8.52754 25.7317 9.86863 26.6278 11.3446 27.2392C12.8205 27.8505 14.4024 28.1652 16 28.1652C17.5976 28.1652 19.1795 27.8505 20.6554 27.2392C22.1314 26.6278 23.4725 25.7317 24.6021 24.6021C25.7317 23.4725 26.6278 22.1314 27.2392 20.6554C27.8505 19.1795 28.1652 17.5976 28.1652 16H32Z" fill="#C73238"/>
<path d="M28.6316 16C28.6316 17.6588 28.3049 19.3014 27.6701 20.8339C27.0353 22.3664 26.1048 23.7589 24.9319 24.9319C23.7589 26.1048 22.3664 27.0353 20.8339 27.67C19.3014 28.3048 17.6588 28.6316 16 28.6316C14.3412 28.6316 12.6986 28.3048 11.1661 27.67C9.63356 27.0352 8.24107 26.1048 7.06812 24.9319C5.89517 23.7589 4.96473 22.3664 4.32994 20.8339C3.69514 19.3014 3.36842 17.6588 3.36842 16L16 16H28.6316Z" fill="#070B09"/>
<path d="M16.1226 7.57895L16.0089 7.96851V19.2716L16.1226 19.386L21.3209 16.2847L16.1226 7.57895Z" fill="white"/>
<path d="M16.1215 7.57895L10.923 16.2847L16.1215 19.386V13.8998V7.57895Z" fill="white"/>
<path d="M16.1226 20.3799L16.0586 20.4587V24.485L16.1226 24.6737L21.3242 17.2801L16.1226 20.3799Z" fill="white"/>
<path d="M16.1215 24.6737V20.3799L10.923 17.2801L16.1215 24.6737Z" fill="white"/>
<path d="M16.1246 19.3858L21.323 16.2845L16.1246 13.8996V19.3858Z" fill="white"/>
<path d="M10.923 16.2847L16.1215 19.386V13.8998L10.923 16.2847Z" fill="white"/>
</svg>
