<svg width="32" height="32" viewBox="0 0 32 32" fill="none" xmlns="http://www.w3.org/2000/svg">
<g clip-path="url(#clip0_1022_136)">
<path d="M16.141 28.487C23.179 28.487 28.885 22.782 28.885 15.744C28.885 8.70599 23.179 3 16.141 3C9.10299 3 3.39801 8.70599 3.39801 15.744C3.39801 22.782 9.10299 28.487 16.141 28.487Z" fill="#2E3148"/>
<path d="M16.111 22.956C20.177 22.956 23.474 19.659 23.474 15.593C23.474 11.527 20.177 8.23001 16.111 8.23001C12.044 8.23001 8.74799 11.527 8.74799 15.593C8.74799 19.659 12.044 22.956 16.111 22.956Z" fill="#1B1E36"/>
<path d="M32 15.6C32 17.701 31.586 19.781 30.782 21.723C29.978 23.664 28.799 25.428 27.314 26.913C25.828 28.399 24.064 29.578 22.123 30.382C20.182 31.186 18.101 31.6 16 31.6C13.899 31.6 11.818 31.186 9.87701 30.382C7.93601 29.578 6.17197 28.399 4.68597 26.913C3.20097 25.428 2.02202 23.664 1.21802 21.723C0.414018 19.781 0 17.701 0 15.6H3.83502C3.83502 17.197 4.14899 18.779 4.76099 20.255C5.37199 21.731 6.26801 23.072 7.39801 24.202C8.52801 25.331 9.86897 26.228 11.345 26.839C12.821 27.45 14.402 27.765 16 27.765C17.598 27.765 19.179 27.45 20.655 26.839C22.131 26.228 23.472 25.331 24.602 24.202C25.732 23.072 26.628 21.731 27.239 20.255C27.851 18.779 28.165 17.197 28.165 15.6H32Z" fill="#C73238"/>
<path d="M28.632 15.6C28.632 17.259 28.305 18.901 27.67 20.434C27.035 21.966 26.105 23.359 24.932 24.532C23.759 25.705 22.367 26.635 20.834 27.27C19.302 27.905 17.659 28.231 16 28.231C14.341 28.231 12.699 27.905 11.166 27.27C9.63402 26.635 8.24099 25.705 7.06799 24.532C5.89499 23.359 4.96502 21.966 4.33002 20.434C3.69502 18.901 3.36902 17.259 3.36902 15.6H16H28.632Z" fill="#070B09"/>
<path d="M15.884 4.591C14.539 4.591 13.448 9.469 13.448 15.487C13.448 21.505 14.539 26.383 15.884 26.383C17.229 26.383 18.32 21.505 18.32 15.487C18.32 9.469 17.229 4.591 15.884 4.591ZM16.052 25.768C15.898 25.973 15.744 25.819 15.744 25.819C15.125 25.102 14.815 23.768 14.815 23.768C13.732 20.282 13.99 12.795 13.99 12.795C14.499 6.85201 15.425 5.44799 15.74 5.13599C15.773 5.10399 15.815 5.08499 15.86 5.08099C15.905 5.07799 15.95 5.09 15.987 5.116C16.444 5.44 16.828 6.79599 16.828 6.79599C17.961 11 17.858 14.949 17.858 14.949C17.961 18.384 17.291 22.23 17.291 22.23C16.775 25.152 16.052 25.768 16.052 25.768Z" fill="white"/>
<path d="M25.334 10.064C24.665 8.89701 19.891 10.379 14.669 13.373C9.44599 16.368 5.76199 19.742 6.43199 20.908C7.10099 22.075 11.875 20.594 17.097 17.599C22.32 14.604 26.004 11.23 25.334 10.064ZM7.04899 20.748C6.79299 20.716 6.851 20.505 6.851 20.505C7.165 19.611 8.166 18.679 8.166 18.679C10.653 16.004 17.275 12.502 17.275 12.502C22.683 9.98602 24.363 10.092 24.789 10.209C24.833 10.222 24.871 10.249 24.896 10.286C24.922 10.324 24.933 10.369 24.929 10.414C24.877 10.973 23.89 11.979 23.89 11.979C20.809 15.056 17.333 16.932 17.333 16.932C14.404 18.731 10.735 20.063 10.735 20.063C7.94297 21.069 7.04899 20.748 7.04899 20.748Z" fill="white"/>
<path d="M25.311 20.947C25.986 19.783 22.312 16.393 17.108 13.376C11.904 10.359 7.13 8.859 6.456 10.025C5.782 11.191 9.45603 14.578 14.663 17.595C19.87 20.613 24.637 22.113 25.311 20.947ZM6.90302 10.475C6.80402 10.238 7.01399 10.182 7.01399 10.182C7.94599 10.006 9.25404 10.406 9.25404 10.406C12.814 11.217 19.163 15.194 19.163 15.194C24.05 18.614 24.8 20.12 24.912 20.548C24.924 20.592 24.919 20.638 24.9 20.679C24.88 20.72 24.847 20.753 24.806 20.771C24.296 21.005 22.931 20.657 22.931 20.657C18.724 19.529 15.359 17.462 15.359 17.462C12.336 15.832 9.34602 13.323 9.34602 13.323C7.07502 11.41 6.904 10.477 6.904 10.477L6.90302 10.475Z" fill="white"/>
<path d="M15.858 16.741C16.566 16.741 17.14 16.167 17.14 15.459C17.14 14.751 16.566 14.177 15.858 14.177C15.15 14.177 14.576 14.751 14.576 15.459C14.576 16.167 15.15 16.741 15.858 16.741Z" fill="white"/>
<path d="M21.115 11.307C21.525 11.307 21.858 10.963 21.858 10.538C21.858 10.113 21.525 9.76901 21.115 9.76901C20.704 9.76901 20.371 10.113 20.371 10.538C20.371 10.963 20.704 11.307 21.115 11.307Z" fill="white"/>
<path d="M8.90997 13.922C9.31997 13.922 9.65302 13.577 9.65302 13.153C9.65302 12.728 9.31997 12.383 8.90997 12.383C8.49897 12.383 8.16602 12.728 8.16602 13.153C8.16602 13.577 8.49897 13.922 8.90997 13.922Z" fill="white"/>
</g>
<defs>
<clipPath id="clip0_1022_136">
<rect width="32" height="32" fill="white"/>
</clipPath>
</defs>
</svg>
