<svg width="32" height="36" viewBox="0 0 32 36" fill="none" xmlns="http://www.w3.org/2000/svg">
<path fill-rule="evenodd" clip-rule="evenodd" d="M17.2625 0.749027C20.2229 0.747225 23.1339 1.50733 25.7151 2.95614C28.2963 4.40494 30.4608 6.49362 32 9.02101C30.8096 9.00406 29.6276 9.22377 28.5229 9.66735C27.4181 10.1109 26.4126 10.7695 25.5648 11.6049C24.717 12.4403 24.0437 13.4357 23.5842 14.5334C23.1247 15.6311 22.888 16.8091 22.888 17.999C22.888 19.1889 23.1247 20.367 23.5842 21.4646C24.0437 22.5623 24.717 23.5578 25.5648 24.3932C26.4126 25.2285 27.4181 25.8871 28.5229 26.3307C29.6276 26.7743 30.8096 26.994 32 26.9771C30.4323 29.5482 28.2186 31.6644 25.5789 33.1155C22.9392 34.5665 19.9655 35.3017 16.9533 35.2481C13.9412 35.1945 10.9956 34.3539 8.40922 32.8099C5.82288 31.2659 3.68593 29.0722 2.2108 26.4469C0.735659 23.8217 -0.026289 20.8562 0.000692456 17.8454C0.0276739 14.8346 0.842645 11.8833 2.3646 9.2849C3.88654 6.68646 6.06247 4.53138 8.67606 3.03391C11.2896 1.53643 14.2499 0.748699 17.2625 0.749027Z" fill="#FFC780"/>
<path fill-rule="evenodd" clip-rule="evenodd" d="M31.9999 9.01553C30.8094 8.99858 29.6275 9.21828 28.5228 9.66186C27.418 10.1054 26.4125 10.7641 25.5647 11.5994C24.7169 12.4348 24.0436 13.4303 23.5841 14.5279C23.1246 15.6256 22.8879 16.8037 22.8879 17.9936C22.8879 19.1834 23.1246 20.3615 23.5841 21.4592C24.0436 22.5568 24.7169 23.5523 25.5647 24.3877C26.4125 25.223 27.418 25.8817 28.5228 26.3252C29.6275 26.7688 30.8094 26.9885 31.9999 26.9716L31.947 27.059C30.1928 28.6489 28.014 29.6948 25.6758 30.0695C23.3377 30.4442 20.9409 30.1315 18.7773 29.1696C16.6137 28.2076 14.7765 26.6377 13.4894 24.6512C12.2023 22.6646 11.5207 20.3469 11.5276 17.9802C11.5346 15.6134 12.2297 13.2998 13.5285 11.3208C14.8272 9.34173 16.6735 7.78269 18.8428 6.83339C21.012 5.88409 23.4105 5.58546 25.7465 5.97386C28.0824 6.36225 30.255 7.42091 31.9999 9.02099V9.01553Z" fill="url(#paint0_linear_496_220742)"/>
<defs>
<linearGradient id="paint0_linear_496_220742" x1="21.7598" y1="30.2239" x2="21.7598" y2="5.80148" gradientUnits="userSpaceOnUse">
<stop stop-color="#FFC780"/>
<stop offset="1" stop-color="#964B48"/>
</linearGradient>
</defs>
</svg>
