<svg width="50" height="39" viewBox="0 0 50 39" fill="none" xmlns="http://www.w3.org/2000/svg">
<path d="M2.86279 13.7549L3.69857 5.8193C3.80585 4.80067 4.28617 3.85766 5.04716 3.17164L5.04716 3.17164C5.42803 2.8283 6.03706 3.0793 6.0651 3.59116L6.62181 13.7549H2.86279V13.7549Z" fill="#FCFCFC"/>
<g opacity="0.35">
<path d="M6.04064 3.14549C6.00538 2.50186 5.04716 2.52806 5.04716 3.17265V3.17267C4.99189 3.22249 4.93857 3.27404 4.8863 3.32651L5.20216 9.09312C5.26747 10.2856 4.3176 11.2884 3.12268 11.2884H3.12267L2.86279 13.756H6.62181L6.04064 3.14549V3.14549Z" fill="#1F1E1C"/>
</g>
<path d="M6.62202 14.2747H2.86301C2.71573 14.2747 2.57524 14.2122 2.47673 14.1028C2.37811 13.9934 2.33064 13.8472 2.34615 13.7008L3.18203 5.76521C3.30283 4.61737 3.84164 3.55939 4.69934 2.78618C5.02563 2.49213 5.48084 2.4134 5.8868 2.58075C6.29299 2.74816 6.56025 3.12451 6.58433 3.56309L7.14103 13.7269C7.14878 13.8693 7.09762 14.0088 6.99947 14.1124C6.90132 14.216 6.76477 14.2747 6.62202 14.2747V14.2747ZM3.44034 13.2357H6.07308L5.54631 3.61982C5.5456 3.60576 5.54321 3.56297 5.4905 3.54128C5.43791 3.51958 5.40607 3.54825 5.39557 3.55766C4.72868 4.15888 4.30973 4.98144 4.21575 5.87397L3.44034 13.2357Z" fill="#1F1E1C"/>
<path d="M7.35965 26.4166C6.66107 26.5227 5.97257 26.5621 5.33011 26.5608C3.24707 26.5565 1.53119 24.9352 1.36247 22.8601C1.12567 19.9476 1.21157 17.4781 1.36237 15.7092C1.52245 13.8316 2.97017 12.3199 4.83964 12.0752C5.38339 12.004 5.88575 11.9583 6.30687 11.9289C6.99841 11.8806 7.5977 12.4016 7.64824 13.0927L8.51667 24.9664C8.56866 25.6773 8.0647 26.3096 7.35965 26.4166Z" fill="#FCFCFC"/>
<g opacity="0.35">
<path d="M8.51687 24.9662L8.26017 21.4564C8.2477 22.1144 7.76283 22.6793 7.09997 22.78C6.40139 22.8861 5.71289 22.9255 5.07044 22.9242C3.22651 22.9204 1.67121 21.6491 1.22119 19.918C1.23512 20.8345 1.27799 21.8182 1.36268 22.8598C1.5314 24.9349 3.24727 26.5563 5.33032 26.5606C5.97278 26.5619 6.66127 26.5225 7.35985 26.4164C8.0649 26.3094 8.56887 25.6771 8.51687 24.9662V24.9662Z" fill="#1F1E1C"/>
</g>
<path d="M5.36094 27.08H5.32922C3.00464 27.0753 1.03474 25.24 0.844642 22.9019C0.644885 20.4448 0.644885 18.0099 0.844642 15.6648C1.024 13.5606 2.67585 11.8342 4.7724 11.5598C5.26005 11.496 5.76427 11.4458 6.271 11.4104C7.24557 11.3443 8.09552 12.0799 8.16684 13.0545L9.03528 24.9283C9.10659 25.9039 8.405 26.7831 7.43782 26.93C6.78237 27.0296 6.08364 27.08 5.36094 27.08V27.08ZM6.39491 12.445C6.37785 12.445 6.36068 12.4456 6.34339 12.4468C5.85741 12.4807 5.3743 12.5289 4.9074 12.59C3.29169 12.8015 2.01862 14.1317 1.88052 15.753C1.68553 18.0409 1.68565 20.4178 1.88076 22.8177C2.02744 24.6215 3.54309 26.0374 5.33137 26.041C5.34114 26.0411 5.35116 26.0411 5.36106 26.0411C6.03164 26.0411 6.67766 25.9946 7.28171 25.9028C7.71569 25.8369 8.03053 25.4421 7.99845 25.0041L7.13001 13.1302C7.10163 12.7426 6.77713 12.445 6.39491 12.445V12.445Z" fill="#1F1E1C"/>
<path d="M46.9072 14.3741L46.0715 6.43844C45.9642 5.41981 45.4838 4.4768 44.7229 3.79078L44.7229 3.79078C44.342 3.44744 43.733 3.69844 43.7049 4.2103L43.1482 14.3741H46.9072V14.3741Z" fill="#FCFCFC"/>
<g opacity="0.35">
<path d="M43.7289 3.76463C43.7641 3.121 44.7224 3.1472 44.7224 3.79179V3.79181C44.7776 3.84163 44.831 3.89318 44.8832 3.94565L44.5674 9.71226C44.5021 10.9048 45.4519 11.9075 46.6469 11.9075H46.6469L46.9067 14.3751H43.1477L43.7289 3.76463V3.76463Z" fill="#1F1E1C"/>
</g>
<path d="M43.1485 14.8939H46.9075C47.0548 14.8939 47.1953 14.8314 47.2938 14.7219C47.3924 14.6125 47.4399 14.4664 47.4244 14.32L46.5885 6.38435C46.4677 5.23651 45.9289 4.17853 45.0712 3.40532C44.7449 3.11127 44.2897 3.03254 43.8837 3.19989C43.4775 3.3673 43.2103 3.74365 43.1862 4.18223L42.6295 14.346C42.6217 14.4884 42.6729 14.6279 42.771 14.7315C42.8692 14.8352 43.0057 14.8939 43.1485 14.8939V14.8939ZM46.3302 13.8549H43.6974L44.2242 4.23896C44.2249 4.2249 44.2273 4.18211 44.28 4.16042C44.3326 4.13872 44.3644 4.16739 44.3749 4.17681C45.0418 4.77802 45.4608 5.60058 45.5548 6.49311L46.3302 13.8549Z" fill="#1F1E1C"/>
<path d="M42.4099 27.0358C43.1085 27.1419 43.797 27.1812 44.4394 27.1799C46.5225 27.1757 48.2383 25.5543 48.4071 23.4792C48.6439 20.5667 48.558 18.0972 48.4072 16.3283C48.2471 14.4507 46.7994 12.939 44.9299 12.6943C44.3861 12.6232 43.8838 12.5774 43.4627 12.548C42.7711 12.4997 42.1718 13.0208 42.1213 13.7118L41.2529 25.5856C41.2009 26.2964 41.7048 26.9287 42.4099 27.0358Z" fill="#FCFCFC"/>
<g opacity="0.35">
<path d="M41.2527 25.5854L41.5094 22.0755C41.5218 22.7335 42.0067 23.2985 42.6696 23.3992C43.3681 23.5052 44.0566 23.5446 44.6991 23.5433C46.543 23.5395 48.0983 22.2682 48.5483 20.5371C48.5344 21.4536 48.4915 22.4373 48.4069 23.479C48.2381 25.5541 46.5223 27.1755 44.4392 27.1797C43.7968 27.181 43.1083 27.1417 42.4097 27.0356C41.7046 26.9285 41.2007 26.2962 41.2527 25.5854V25.5854Z" fill="#1F1E1C"/>
</g>
<path d="M44.4096 27.6992H44.4413C46.7659 27.6944 48.7358 25.8592 48.9259 23.521C49.1256 21.0639 49.1256 18.629 48.9259 16.2839C48.7465 14.1797 47.0947 12.4534 44.9981 12.179C44.5105 12.1152 44.0062 12.0649 43.4995 12.0295C42.5249 11.9634 41.675 12.699 41.6037 13.6736L40.7352 25.5475C40.6639 26.523 41.3655 27.4023 42.3327 27.5491C42.9881 27.6487 43.6869 27.6992 44.4096 27.6992V27.6992ZM43.3756 13.0642C43.3927 13.0642 43.4098 13.0648 43.4271 13.066C43.9131 13.0999 44.3962 13.148 44.8631 13.2092C46.4788 13.4206 47.7519 14.7508 47.89 16.3721C48.085 18.6601 48.0849 21.037 47.8898 23.4368C47.7431 25.2407 46.2274 26.6565 44.4391 26.6602C44.4294 26.6602 44.4193 26.6602 44.4094 26.6602C43.7389 26.6602 43.0928 26.6137 42.4888 26.5219C42.0548 26.456 41.74 26.0613 41.7721 25.6232L42.6405 13.7494C42.6689 13.3617 42.9934 13.0642 43.3756 13.0642V13.0642Z" fill="#1F1E1C"/>
<path fill-rule="evenodd" clip-rule="evenodd" d="M23.046 7.38577C22.9372 7.39508 22.4331 7.43322 21.9258 7.47048C20.8363 7.55048 18.9877 7.72555 18.2137 7.82202C14.5468 8.27902 11.0327 9.41546 8.60166 10.9305C7.59372 11.5587 7.24474 11.8142 6.85772 12.2074C6.24024 12.8348 6.00112 13.3833 5.69985 14.8633C4.84273 19.0745 4.82687 22.4213 5.64881 25.6399C5.7433 26.0099 5.91274 26.5458 6.02533 26.831C6.13797 27.1161 6.28693 27.5149 6.35639 27.7172C6.52609 28.2117 6.8412 28.7916 7.38457 29.6097C8.29274 30.9768 9.19001 31.9848 10.4161 33.0151C12.9655 35.1574 16.5499 36.627 21.0471 37.3736C23.8786 37.8436 25.9932 37.8449 28.7804 37.3781C31.2922 36.9574 33.5372 36.2485 35.7198 35.1867C37.4516 34.3442 38.6837 33.5337 39.8896 32.4435C40.521 31.8727 41.0523 31.2437 42.198 29.7106C42.4402 29.3865 43.0175 28.3151 43.1476 27.9482C43.2131 27.7637 43.3552 27.4056 43.4635 27.1525C44.1615 25.5211 44.4668 23.8258 44.5148 21.3147C44.5589 19.0118 44.3336 16.7428 43.8417 14.5342C43.4748 12.8864 43.2836 12.5764 42.0745 11.6691C40.3814 10.3986 38.2814 9.39992 35.8766 8.72154C32.9769 7.90347 28.9508 7.4071 25.0009 7.38064C24.0344 7.37414 23.1547 7.37647 23.046 7.38577Z" fill="#1F1E1C"/>
<path d="M28.1127 9.0767C27.0197 8.99798 25.9496 8.93322 25.735 8.93294C24.1531 8.93065 24.8206 8.93193 23.8187 8.93266C22.953 8.9335 19.4996 9.22907 18.0154 9.42954C14.7352 9.87253 11.4748 10.9329 9.4218 12.2245C7.48887 13.4404 7.49271 13.4354 7.10448 15.336C6.62866 17.6649 6.41063 20.14 6.52504 21.9117C6.63207 23.5688 7.0274 25.5596 7.42911 26.4631C7.57532 26.792 7.73644 27.2258 7.78711 27.4271C7.83779 27.6284 8.24007 28.3268 8.68111 28.979C11.0437 32.4731 14.6724 34.6288 20.0216 35.716C23.0567 36.3329 25.0473 36.4312 27.6441 36.0926C32.9841 35.3964 37.9615 32.9909 40.1244 30.0609C40.5405 29.4973 40.9182 29.0045 40.9639 28.9657C41.099 28.8509 41.8265 27.6139 41.8265 27.478C41.8265 27.4093 41.9372 27.0006 42.0918 26.6716C43.2139 24.284 43.3871 19.792 42.5248 15.4434C42.3666 14.6463 42.1743 13.8771 42.0974 13.7342C41.8694 13.3106 40.2665 12.1886 38.9718 11.5462C36.2351 10.1884 32.8453 9.41741 28.1127 9.0767Z" fill="white"/>
<path d="M9.34825 22.0787C9.11532 20.7332 9.20658 15.5525 9.20658 15.5525C9.20658 15.5525 9.14765 13.3004 9.54254 11.9757C9.56225 11.9632 9.63508 11.9238 9.65521 11.911C11.7048 10.6074 14.9266 9.67422 18.2013 9.22712C19.6831 9.02479 23.1307 8.72649 23.995 8.72564C24.3196 8.7254 24.4686 8.7251 24.5759 8.72489C24.7992 8.72445 24.8413 8.72436 25.9081 8.72592C26.1224 8.7262 27.1906 8.79156 28.2818 8.87101C33.0065 9.21488 36.3907 9.99302 39.1228 11.3634C39.4394 11.5222 39.7744 11.816 40.1032 12.0154C40.5248 13.7439 40.7903 15.6486 40.7903 18.7075C40.79 21.1502 40.5842 22.0376 40.3103 23.1544C38.9998 28.4989 35.6427 31.6447 29.4117 33.3674C27.218 33.974 24.237 34.0734 21.8522 33.6197C17.7813 32.8452 14.4231 31.1793 12.4741 28.9675C10.8137 27.0834 9.84473 24.948 9.34825 22.0787Z" fill="#1F1E1C"/>
<rect x="34.8315" y="24.5" width="7.01845" height="9.01037" rx="3.50922" transform="rotate(180 34.8315 24.5)" fill="#FCFCFC"/>
<rect x="21.8198" y="24.5" width="7.01845" height="9.01037" rx="3.50922" transform="rotate(180 21.8198 24.5)" fill="#FCFCFC"/>
<path d="M10.6533 12.6287C14.8924 9.88144 28.5426 6.71665 39.1191 12.6287C30.6759 10.2178 23.4176 9.57181 10.6533 12.6287Z" fill="#767676" fill-opacity="0.76"/>
<path d="M38.9985 26.3722C31.0377 38.9095 13.3069 33.3644 10.6533 26.3721C16.7925 30.0552 21.2198 31.5649 25.6099 31.079C29.7184 31.0901 33.6006 29.5492 38.9985 26.3722Z" fill="#262626"/>
<path d="M43.0698 21.3378C43.0563 22.293 42.9767 23.709 42.6503 25.4191C42.6134 25.6129 42.5445 25.9736 42.465 26.2979C41.815 28.9482 40.0198 30.9227 39.353 31.5998C38.941 32.0182 37.6391 33.2827 34.9534 34.5485C33.0607 35.4406 29.6714 36.7149 24.9639 36.804C20.6295 36.8041 17.4295 35.6881 15.6183 34.8903C14.1047 34.2235 12.3789 33.4435 10.6528 31.717C10.0737 31.1376 8.0951 29.052 7.16042 25.7511C6.38709 23.02 6.53794 20.5376 6.54695 20.5371C6.5527 20.5368 6.63338 21.5409 6.83362 22.8854C6.8791 23.1908 7.25407 25.6145 8.23351 27.5868C9.65591 30.4509 12.1557 31.9651 13.6965 32.8984C18.1081 35.5706 22.6102 35.8128 24.9932 35.7495C29.5323 35.6185 32.8372 34.4524 34.7485 33.6014C37.3166 32.458 38.5705 31.3486 39.0604 30.887C39.7982 30.1918 41.3608 28.6868 42.2016 26.2979C42.991 24.055 43.0423 21.322 43.0683 21.3254C43.0696 21.3256 43.0698 21.3323 43.0698 21.3378Z" fill="#B1B0B0"/>
</svg>
