<svg width="28" height="24" viewBox="0 0 28 24" fill="none" xmlns="http://www.w3.org/2000/svg">
<path d="M0.00970459 0.462933V9.01562L0.0129474 8.67703C0.0713179 15.9855 6.3121 22.2336 14.004 22.2336C21.696 22.2336 27.9384 16.3257 27.9951 9.01562L27.9984 8.67703V0.462933C27.9984 0.462933 26.0575 -0.469798 23.8492 1.75502C22.4321 3.18286 21.2987 8.31288 18.2635 8.3592C14.2099 8.42149 11.4536 3.11578 8.15563 1.13373C4.71177 -0.93776 0.00970459 0.462933 0.00970459 0.462933Z" fill="url(#paint0_linear_1614_216)"/>
<path d="M0.00970459 0.462933V9.01562L0.0129474 8.67703C0.0713179 15.9855 6.3121 22.2336 14.004 22.2336C21.696 22.2336 27.9384 16.3257 27.9951 9.01562L27.9984 8.67703V0.462933C27.9984 0.462933 26.0575 -0.469798 23.8492 1.75502C22.4321 3.18286 21.2987 8.31288 18.2635 8.3592C14.2099 8.42149 11.4536 3.11578 8.15563 1.13373C4.71177 -0.93776 0.00970459 0.462933 0.00970459 0.462933Z" fill="url(#paint1_linear_1614_216)"/>
<path d="M27.9968 9.86041L28 9.49786V3.91905C27.2104 4.04841 26.2375 4.42853 25.2096 5.36286C23.619 6.80827 22.3494 11.999 18.9445 12.0453C14.3997 12.1076 11.306 6.7396 7.60762 4.73359C5.04094 3.33928 1.85164 3.499 0 3.76253V9.86041L0.0032428 9.49786C0.0616133 17.3159 6.30401 23.9999 14.0008 23.9999C21.6976 23.9999 27.94 17.68 27.9984 9.86041H27.9968Z" fill="url(#paint2_linear_1614_216)"/>
<path d="M27.9968 9.86041L28 9.49786V3.91905C27.2104 4.04841 26.2375 4.42853 25.2096 5.36286C23.619 6.80827 22.3494 11.999 18.9445 12.0453C14.3997 12.1076 11.306 6.7396 7.60762 4.73359C5.04094 3.33928 1.85164 3.499 0 3.76253V9.86041L0.0032428 9.49786C0.0616133 17.3159 6.30401 23.9999 14.0008 23.9999C21.6976 23.9999 27.94 17.68 27.9984 9.86041H27.9968Z" fill="url(#paint3_linear_1614_216)"/>
<path d="M27.9968 9.86045L28 9.4979V8.51406C27.3952 8.74085 26.7353 9.105 26.0543 9.67997C24.3421 11.1254 22.9753 16.3161 19.3109 16.3624C14.4175 16.4247 11.0888 11.0567 7.10661 9.0507C4.79449 7.88638 2.01378 7.80653 0 7.96624V9.86045L0.0032428 9.4979C0.0616133 17.3159 6.30401 23.9999 14.0008 23.9999C21.6976 23.9999 27.94 17.6801 27.9984 9.86045H27.9968Z" fill="url(#paint4_linear_1614_216)"/>
<defs>
<linearGradient id="paint0_linear_1614_216" x1="-2.15487" y1="16.9822" x2="33.3781" y2="-1.88083" gradientUnits="userSpaceOnUse">
<stop stop-color="#FDA9FF"/>
<stop offset="0.03" stop-color="#F8AAFF"/>
<stop offset="0.24" stop-color="#DBB2FF"/>
<stop offset="0.37" stop-color="#D1B6FF"/>
<stop offset="0.89" stop-color="#4DFFE5"/>
</linearGradient>
<linearGradient id="paint1_linear_1614_216" x1="12.4394" y1="11.2085" x2="16.0227" y2="-2.13269" gradientUnits="userSpaceOnUse">
<stop stop-color="#16183C" stop-opacity="0.3"/>
<stop offset="0.28" stop-color="#16183C" stop-opacity="0.18"/>
<stop offset="0.87" stop-color="#16183C" stop-opacity="0"/>
</linearGradient>
<linearGradient id="paint2_linear_1614_216" x1="-0.969598" y1="17.9819" x2="30.9514" y2="3.6411" gradientUnits="userSpaceOnUse">
<stop stop-color="#FDA9FF"/>
<stop offset="0.03" stop-color="#F8AAFF"/>
<stop offset="0.24" stop-color="#DBB2FF"/>
<stop offset="0.37" stop-color="#D1B6FF"/>
<stop offset="0.89" stop-color="#4DFFE5"/>
</linearGradient>
<linearGradient id="paint3_linear_1614_216" x1="10.7904" y1="14.9457" x2="15.5862" y2="4.93704" gradientUnits="userSpaceOnUse">
<stop stop-color="#16183C" stop-opacity="0.3"/>
<stop offset="0.28" stop-color="#16183C" stop-opacity="0.18"/>
<stop offset="0.87" stop-color="#16183C" stop-opacity="0"/>
</linearGradient>
<linearGradient id="paint4_linear_1614_216" x1="-2.34455" y1="19.9927" x2="26.3469" y2="8.81237" gradientUnits="userSpaceOnUse">
<stop stop-color="#FDA9FF"/>
<stop offset="0.03" stop-color="#F8AAFF"/>
<stop offset="0.24" stop-color="#DBB2FF"/>
<stop offset="0.37" stop-color="#D1B6FF"/>
<stop offset="0.89" stop-color="#4DFFE5"/>
</linearGradient>
</defs>
</svg>
