<svg width="180" height="162" viewBox="0 0 180 162" fill="none" xmlns="http://www.w3.org/2000/svg">
<path d="M73.209 18.6L12.609 123.6C5.20898 136.6 14.409 152.8 29.409 152.8H150.609C165.609 152.8 174.809 136.6 167.409 123.6L106.809 18.6C99.409 5.8 80.609 5.8 73.209 18.6V18.6Z" fill="#F0F5F6" stroke="#F0F5F6" stroke-width="18" stroke-miterlimit="10"/>
<path d="M90.009 130.4C95.9737 130.4 100.809 125.565 100.809 119.6C100.809 113.635 95.9737 108.8 90.009 108.8C84.0443 108.8 79.209 113.635 79.209 119.6C79.209 125.565 84.0443 130.4 90.009 130.4Z" fill="#912623"/>
<path d="M100.809 68.4001C100.809 80.4001 97.609 91.0001 94.609 98.2001C93.009 102.4 87.009 102.4 85.209 98.2001C82.209 91.0001 79.009 80.2001 79.009 68.4001C79.009 50.6001 83.809 44.6001 89.809 44.6001C95.809 44.6001 100.809 50.6001 100.809 68.4001V68.4001Z" fill="#912623"/>
</svg>
