<svg width="123" height="30" viewBox="0 0 123 30" fill="none" xmlns="http://www.w3.org/2000/svg">
<g clip-path="url(#clip0_571_961)">
<path d="M46.2889 12.1948C46.2889 13.2172 46.0496 14.1518 45.571 14.9984C45.1084 15.8291 44.3984 16.5001 43.4412 17.0113C42.5 17.5065 41.3434 17.7541 39.9714 17.7541H37.6502V23.4572H32.96V6.56358H39.9714C41.3274 6.56358 42.4761 6.8032 43.4173 7.28246C44.3745 7.76171 45.0924 8.42468 45.571 9.27136C46.0496 10.118 46.2889 11.0925 46.2889 12.1948ZM39.5167 14.016C40.8409 14.016 41.5029 13.4089 41.5029 12.1948C41.5029 10.9647 40.8409 10.3497 39.5167 10.3497H37.6502V14.016H39.5167Z" fill="white"/>
<path d="M54.5385 23.625C52.5763 23.625 50.965 23.1617 49.7047 22.2352C48.4444 21.2926 47.7664 19.9507 47.6707 18.2094H52.672C52.7199 18.8005 52.8953 19.2318 53.1984 19.5034C53.5016 19.775 53.8924 19.9108 54.371 19.9108C54.8017 19.9108 55.1527 19.8069 55.4239 19.5993C55.7111 19.3756 55.8547 19.0721 55.8547 18.6887C55.8547 18.1935 55.6233 17.8101 55.1607 17.5385C54.6981 17.2669 53.9483 16.9634 52.9113 16.6279C51.8105 16.2605 50.9171 15.909 50.2311 15.5735C49.5611 15.2221 48.9708 14.7189 48.4603 14.0639C47.9658 13.3929 47.7185 12.5223 47.7185 11.452C47.7185 10.3657 47.9897 9.4391 48.5321 8.67229C49.0745 7.88951 49.8243 7.29843 50.7815 6.89905C51.7387 6.49968 52.8235 6.29999 54.036 6.29999C55.9982 6.29999 57.5617 6.76327 58.7262 7.68982C59.9068 8.6004 60.5369 9.8864 60.6167 11.5478H55.5196C55.5037 11.0366 55.3442 10.6532 55.041 10.3976C54.7539 10.142 54.379 10.0142 53.9163 10.0142C53.5654 10.0142 53.2782 10.118 53.0549 10.3257C52.8315 10.5334 52.7199 10.8289 52.7199 11.2123C52.7199 11.5318 52.8395 11.8114 53.0788 12.051C53.3341 12.2747 53.6451 12.4744 54.0121 12.6501C54.379 12.8098 54.9214 13.0175 55.6393 13.2731C56.7082 13.6405 57.5856 14.008 58.2716 14.3754C58.9735 14.7269 59.5718 15.2301 60.0663 15.885C60.5768 16.5241 60.8321 17.3388 60.8321 18.3292C60.8321 19.3357 60.5768 20.2383 60.0663 21.037C59.5718 21.8358 58.8459 22.4668 57.8887 22.9301C56.9475 23.3933 55.8307 23.625 54.5385 23.625Z" fill="white"/>
<path d="M75.7192 6.56358V10.3018H71.2204V23.4572H66.5302V10.3018H62.0792V6.56358H75.7192Z" fill="white"/>
<path d="M88.1273 20.7015H82.1448L81.2355 23.4572H76.3059L82.4559 6.56358H87.864L93.9901 23.4572H89.0366L88.1273 20.7015ZM86.9547 17.1071L85.136 11.6437L83.3413 17.1071H86.9547Z" fill="white"/>
<path d="M105.498 23.4572L100.209 16.0528V23.4572H95.5188V6.56358H100.209V13.8482L105.45 6.56358H110.858L104.66 14.7588L111.169 23.4572H105.498Z" fill="white"/>
<path d="M117.572 10.3257V13.0814H122.956V16.6519H117.572V19.6951H123.674V23.4572H112.882V6.56358H123.674V10.3257H117.572Z" fill="white"/>
<ellipse cx="14.9817" cy="15" rx="14.9817" ry="15" fill="white"/>
<path d="M21.499 4.6499H8.46484V7.1999H21.499V4.6499Z" fill="#E50913"/>
<path d="M15.1568 25.4251C13.9451 25.4251 12.8594 25.2243 11.8995 24.8227C10.9396 24.4211 10.1686 23.8267 9.58638 23.0396C9.0199 22.2525 8.72092 21.3047 8.68945 20.1963H12.9853C13.0482 20.8228 13.2606 21.3047 13.6225 21.642C13.9845 21.9633 14.4565 22.124 15.0387 22.124C15.6367 22.124 16.1088 21.9874 16.4549 21.7143C16.8011 21.4252 16.9742 21.0316 16.9742 20.5336C16.9742 20.116 16.8326 19.7706 16.5493 19.4975C16.2818 19.2244 15.9435 18.9995 15.5344 18.8228C15.141 18.6461 14.5745 18.4453 13.835 18.2204C12.765 17.8831 11.8916 17.5457 11.215 17.2084C10.5384 16.871 9.95616 16.373 9.46836 15.7144C8.98056 15.0558 8.73666 14.1964 8.73666 13.1362C8.73666 11.5619 9.29527 10.333 10.4125 9.44947C11.5297 8.54989 12.9853 8.1001 14.7791 8.1001C16.6044 8.1001 18.0757 8.54989 19.1929 9.44947C20.3101 10.333 20.9081 11.5699 20.9868 13.1603H16.6202C16.5887 12.6141 16.392 12.1884 16.0301 11.8832C15.6682 11.5619 15.204 11.4012 14.6375 11.4012C14.1497 11.4012 13.7563 11.5378 13.4573 11.8109C13.1583 12.0679 13.0089 12.4454 13.0089 12.9434C13.0089 13.4896 13.2606 13.9153 13.7642 14.2205C14.2677 14.5257 15.0545 14.855 16.1245 15.2084C17.1945 15.5779 18.06 15.9313 18.7209 16.2686C19.3975 16.606 19.9797 17.0959 20.4675 17.7385C20.9553 18.381 21.1992 19.2083 21.1992 20.2204C21.1992 21.1842 20.9553 22.0597 20.4675 22.8468C19.9954 23.634 19.3031 24.2605 18.3904 24.7263C17.4777 25.1922 16.3999 25.4251 15.1568 25.4251Z" fill="black"/>
</g>
<defs>
<clipPath id="clip0_571_961">
<rect width="123" height="30" fill="white"/>
</clipPath>
</defs>
</svg>
