<svg width="21" height="20" viewBox="0 0 21 20" fill="none" xmlns="http://www.w3.org/2000/svg">
<rect x="0.910889" width="20" height="19.9992" rx="9.99958" fill="white"/>
<path d="M15.4189 9.50539C15.4189 10.0622 15.2911 10.5734 15.0355 11.0389C14.7799 11.4954 14.3874 11.8651 13.8579 12.148C13.3285 12.431 12.6712 12.5725 11.8862 12.5725H10.4348V16.023H8.09338V6.41089H11.8862C12.653 6.41089 13.3011 6.54325 13.8305 6.80797C14.36 7.07269 14.7571 7.43782 15.0218 7.90337C15.2865 8.36891 15.4189 8.90292 15.4189 9.50539ZM11.7082 10.7103C12.1555 10.7103 12.4887 10.6053 12.7077 10.3954C12.9268 10.1854 13.0364 9.88877 13.0364 9.50539C13.0364 9.122 12.9268 8.82533 12.7077 8.61538C12.4887 8.40542 12.1555 8.30045 11.7082 8.30045H10.4348V10.7103H11.7082Z" fill="black"/>
<path d="M15.4669 3.97559H8.0932V5.52251H15.4669V3.97559Z" fill="#DB2438"/>
</svg>
