<svg width="22" height="18" viewBox="0 0 22 18" fill="none" xmlns="http://www.w3.org/2000/svg">
<path d="M16.8023 2.15545e-07H8.46277C8.25499 0.000177095 8.05091 0.0491204 7.87096 0.141931C7.691 0.234741 7.54148 0.368163 7.43737 0.52884L3.26756 6.98205C3.1633 7.14272 3.1084 7.32516 3.1084 7.51089C3.1084 7.69662 3.1633 7.87905 3.26756 8.03973L7.43737 14.493L9.48791 13.4353L5.66184 7.51091L9.14715 2.11536H16.1209L19.9499 8.03968L22.0005 6.982L17.8275 0.52884C17.7237 0.367968 17.5743 0.234384 17.3943 0.141543C17.2143 0.0487015 17.0101 -0.000118376 16.8023 2.15545e-07V2.15545e-07Z" fill="#9C6CFF"/>
<path d="M14.56 3.50781L12.5094 4.56549L16.3385 10.4899L12.8532 15.8853H5.87959L2.05054 9.961L0 11.0187L4.16982 17.4719C4.27372 17.6327 4.42317 17.7663 4.60315 17.8591C4.78312 17.9519 4.98728 18.0008 5.19509 18.0008H13.5347C13.7425 18.0006 13.9466 17.9516 14.1265 17.8588C14.3064 17.766 14.4559 17.6326 14.56 17.4719L18.7298 11.0187C18.8341 10.858 18.889 10.6756 18.889 10.4899C18.889 10.3042 18.8341 10.1217 18.7298 9.96104L14.56 3.50781Z" fill="#05D2DD"/>
</svg>
