<svg width="32" height="32" viewBox="0 0 32 32" fill="none" xmlns="http://www.w3.org/2000/svg">
<path d="M25.8682 5.48926H6.11035V23.4467H25.8682V5.48926Z" fill="white"/>
<path fill-rule="evenodd" clip-rule="evenodd" d="M31.9895 16C31.9895 24.8249 24.8309 31.9787 16.0001 31.9787C7.16942 31.9787 0.0107422 24.8249 0.0107422 16C0.0107422 7.17516 7.16942 0.0212402 16.0001 0.0212402C24.8309 0.0212402 31.9895 7.17516 31.9895 16ZM11.4692 22.3587H8.36609C7.71403 22.3587 7.39195 22.3587 7.19556 22.2332C6.98344 22.0957 6.85382 21.868 6.83811 21.6168C6.82632 21.3853 6.98738 21.1026 7.30947 20.5373L14.9714 7.04113C15.2974 6.46803 15.4624 6.18147 15.6705 6.0755C15.8944 5.96167 16.1615 5.96167 16.3854 6.0755C16.5936 6.18147 16.7586 6.46803 17.0846 7.04113L18.6597 9.78888L18.6678 9.8029C19.0199 10.4177 19.1985 10.7295 19.2764 11.0568C19.3628 11.414 19.3628 11.7908 19.2764 12.148C19.1979 12.4777 19.0211 12.7918 18.6637 13.4159L14.639 20.5255L14.6286 20.5438C14.2742 21.1636 14.0946 21.4778 13.8456 21.7149C13.5746 21.974 13.2485 22.1623 12.8911 22.2685C12.5651 22.3587 12.1998 22.3587 11.4692 22.3587ZM19.3055 22.3587H23.7518C24.4078 22.3587 24.7378 22.3587 24.9343 22.2293C25.1464 22.0919 25.2799 21.8602 25.2918 21.6091C25.3031 21.3851 25.1455 21.1134 24.8368 20.581C24.8262 20.5628 24.8155 20.5444 24.8047 20.5256L22.5775 16.718L22.5521 16.6752C22.2391 16.1463 22.0812 15.8792 21.8783 15.776C21.6545 15.6621 21.3911 15.6621 21.1673 15.776C20.9631 15.8819 20.7981 16.1606 20.4721 16.722L18.2528 20.5296L18.2452 20.5427C17.9203 21.1031 17.7579 21.3832 17.7697 21.6129C17.7854 21.8642 17.915 22.0957 18.1271 22.2332C18.3196 22.3587 18.6495 22.3587 19.3055 22.3587Z" fill="#E84142"/>
</svg>
