<svg width="52" height="52" viewBox="0 0 52 52" fill="none" xmlns="http://www.w3.org/2000/svg">
<g filter="url(#filter0_d_306_717)">
<path d="M26.2122 43.7523C36.7692 43.7523 45.3273 35.1942 45.3273 24.6373C45.3273 14.0803 36.7692 5.52222 26.2122 5.52222C15.6553 5.52222 7.09717 14.0803 7.09717 24.6373C7.09717 35.1942 15.6553 43.7523 26.2122 43.7523Z" fill="#2E3148"/>
<path d="M26.1663 35.455C32.2659 35.455 37.2106 30.5103 37.2106 24.4107C37.2106 18.3111 32.2659 13.3665 26.1663 13.3665C20.0667 13.3665 15.1221 18.3111 15.1221 24.4107C15.1221 30.5103 20.0667 35.455 26.1663 35.455Z" fill="#1B1E36"/>
<path d="M50 24.4211C50 27.5729 49.3792 30.6937 48.1731 33.6055C46.967 36.5174 45.1992 39.1631 42.9706 41.3917C40.742 43.6203 38.0962 45.3881 35.1844 46.5943C32.2726 47.8004 29.1517 48.4211 26 48.4211C22.8483 48.4211 19.7274 47.8004 16.8156 46.5942C13.9038 45.3881 11.258 43.6203 9.02944 41.3917C6.80083 39.1631 5.033 36.5174 3.82689 33.6055C2.62078 30.6937 2 27.5729 2 24.4211H7.75219C7.75219 26.8175 8.22419 29.1903 9.14122 31.4043C10.0583 33.6182 11.4024 35.6298 13.0969 37.3243C14.7913 39.0188 16.8029 40.3629 19.0169 41.2799C21.2308 42.197 23.6037 42.6689 26 42.6689C28.3963 42.6689 30.7692 42.197 32.9831 41.2799C35.1971 40.3629 37.2087 39.0188 38.9031 37.3243C40.5976 35.6298 41.9417 33.6182 42.8588 31.4043C43.7758 29.1903 44.2478 26.8175 44.2478 24.4211H50Z" fill="#C73238"/>
<path d="M44.9475 24.4212C44.9475 26.9094 44.4574 29.3733 43.5052 31.6721C42.553 33.9709 41.1573 36.0596 39.3979 37.8191C37.6385 39.5785 35.5497 40.9741 33.2509 41.9263C30.9521 42.8785 28.4883 43.3686 26.0001 43.3686C23.5119 43.3686 21.0481 42.8785 18.7493 41.9263C16.4505 40.9741 14.3617 39.5785 12.6023 37.8191C10.8429 36.0596 9.44721 33.9709 8.49502 31.6721C7.54282 29.3733 7.05273 26.9094 7.05273 24.4212L26.0001 24.4212H44.9475Z" fill="#070B09"/>
<path d="M25.8254 7.90747C23.8079 7.90747 22.1719 15.2251 22.1719 24.2519C22.1719 33.2787 23.8079 40.5963 25.8254 40.5963C27.843 40.5963 29.479 33.2787 29.479 24.2519C29.479 15.2251 27.843 7.90747 25.8254 7.90747ZM26.0777 39.6739C25.847 39.9816 25.6163 39.7507 25.6163 39.7507C24.6871 38.6742 24.2225 36.6742 24.2225 36.6742C22.5973 31.444 22.9841 20.2145 22.9841 20.2145C23.7479 11.2994 25.1373 9.19336 25.6101 8.72581C25.6584 8.67809 25.722 8.64893 25.7896 8.64346C25.8573 8.63799 25.9247 8.65656 25.9801 8.6959C26.6661 9.182 27.2415 11.2149 27.2415 11.2149C28.9406 17.5219 28.7867 23.4443 28.7867 23.4443C28.9406 28.5976 27.9353 34.3662 27.9353 34.3662C27.1615 38.7501 26.0777 39.6739 26.0777 39.6739Z" fill="white"/>
<path d="M40.0015 16.1172C38.997 14.3665 31.8362 16.5893 24.0026 21.0813C16.169 25.5732 10.6433 30.6341 11.647 32.384C12.6508 34.1338 19.8123 31.9118 27.6459 27.4198C35.4795 22.9279 41.0052 17.867 40.0015 16.1172ZM12.5738 32.1438C12.1892 32.0954 12.2761 31.7793 12.2761 31.7793C12.7478 30.4379 14.249 29.0396 14.249 29.0396C17.9785 25.027 27.9122 19.7745 27.9122 19.7745C36.0244 16.0002 38.5441 16.1595 39.1833 16.3355C39.2489 16.3538 39.3059 16.3947 39.3442 16.451C39.3826 16.5074 39.3997 16.5754 39.3926 16.6432C39.3158 17.4805 37.8351 18.9907 37.8351 18.9907C33.213 23.6048 27.9991 26.4191 27.9991 26.4191C23.6056 29.118 18.1017 31.1154 18.1017 31.1154C13.9138 32.6245 12.5739 32.1438 12.5739 32.1438H12.5738Z" fill="white"/>
<path d="M39.9668 32.4417C40.9791 30.6958 35.4673 25.6118 27.6613 21.0861C19.8553 16.5605 12.6955 14.3102 11.6841 16.0591C10.6728 17.8081 16.1836 22.889 23.9942 27.4147C31.8047 31.9404 38.9555 34.1908 39.9668 32.4417ZM12.3549 16.7338C12.2053 16.3792 12.521 16.2939 12.521 16.2939C13.9184 16.03 15.8813 16.6313 15.8813 16.6313C21.2214 17.8474 30.7437 23.812 30.7437 23.812C38.0751 28.9422 39.1995 31.2019 39.368 31.8433C39.3852 31.9091 39.3785 31.9788 39.3492 32.0402C39.32 32.1016 39.2699 32.1506 39.208 32.1787C38.4435 32.5287 36.396 32.0072 36.396 32.0072C30.0852 30.3151 25.0381 27.2148 25.0381 27.2148C20.5033 24.7689 16.0192 21.0055 16.0192 21.0055C12.6119 18.1367 12.3559 16.7376 12.3559 16.7376L12.3549 16.7338Z" fill="white"/>
<path d="M25.7871 26.1336C26.8491 26.1336 27.71 25.2727 27.71 24.2107C27.71 23.1487 26.8491 22.2878 25.7871 22.2878C24.7251 22.2878 23.8643 23.1487 23.8643 24.2107C23.8643 25.2727 24.7251 26.1336 25.7871 26.1336Z" fill="white"/>
<path d="M33.6718 17.9822C34.2877 17.9822 34.7869 17.4657 34.7869 16.8285C34.7869 16.1913 34.2877 15.6748 33.6718 15.6748C33.0559 15.6748 32.5566 16.1913 32.5566 16.8285C32.5566 17.4657 33.0559 17.9822 33.6718 17.9822Z" fill="white"/>
<path d="M15.3643 21.9043C15.9803 21.9043 16.4797 21.3878 16.4797 20.7506C16.4797 20.1135 15.9803 19.5969 15.3643 19.5969C14.7484 19.5969 14.249 20.1135 14.249 20.7506C14.249 21.3878 14.7484 21.9043 15.3643 21.9043Z" fill="white"/>
<path d="M23.5182 36.0564C24.1342 36.0564 24.6335 35.5399 24.6335 34.9027C24.6335 34.2656 24.1342 33.749 23.5182 33.749C22.9022 33.749 22.4028 34.2656 22.4028 34.9027C22.4028 35.5399 22.9022 36.0564 23.5182 36.0564Z" fill="white"/>
</g>
<defs>
<filter id="filter0_d_306_717" x="0.315789" y="0" width="51.3684" height="51.7896" filterUnits="userSpaceOnUse" color-interpolation-filters="sRGB">
<feFlood flood-opacity="0" result="BackgroundImageFix"/>
<feColorMatrix in="SourceAlpha" type="matrix" values="0 0 0 0 0 0 0 0 0 0 0 0 0 0 0 0 0 0 127 0" result="hardAlpha"/>
<feOffset dy="1.68421"/>
<feGaussianBlur stdDeviation="0.842105"/>
<feComposite in2="hardAlpha" operator="out"/>
<feColorMatrix type="matrix" values="0 0 0 0 0 0 0 0 0 0 0 0 0 0 0 0 0 0 0.25 0"/>
<feBlend mode="normal" in2="BackgroundImageFix" result="effect1_dropShadow_306_717"/>
<feBlend mode="normal" in="SourceGraphic" in2="effect1_dropShadow_306_717" result="shape"/>
</filter>
</defs>
</svg>
