<svg width="46" height="46" viewBox="0 0 46 46" fill="none" xmlns="http://www.w3.org/2000/svg">
<path d="M23 46C35.7025 46 46 35.7025 46 23C46 10.2975 35.7025 0 23 0C10.2974 0 0 10.2975 0 23C0 35.7025 10.2974 46 23 46Z" fill="#2E3148"/>
<path d="M22.9995 36.3454C30.3701 36.3454 36.3452 30.3704 36.3452 22.9997C36.3452 15.6291 30.3701 9.65405 22.9995 9.65405C15.6289 9.65405 9.65381 15.6291 9.65381 22.9997C9.65381 30.3704 15.6289 36.3454 22.9995 36.3454Z" fill="#2E3148"/>
<path d="M23.0457 2.93286C20.5629 2.93286 18.5498 11.9378 18.5498 23.0461C18.5498 34.1544 20.5629 43.1593 23.0457 43.1593C25.5284 43.1593 27.5415 34.1544 27.5415 23.0461C27.5415 11.9378 25.5284 2.93286 23.0457 2.93286ZM23.3561 42.0243C23.0722 42.4029 22.7882 42.1188 22.7882 42.1188C21.6449 40.794 21.0732 38.3328 21.0732 38.3328C19.0733 31.8966 19.5493 18.0777 19.5493 18.0777C20.4892 7.1069 22.1989 4.51526 22.7807 3.93989C22.8401 3.88117 22.9184 3.84529 23.0016 3.83855C23.0849 3.83182 23.1678 3.85467 23.2359 3.90309C24.0801 4.50128 24.7882 7.00294 24.7882 7.00294C26.8789 14.7642 26.6896 22.0523 26.6896 22.0523C26.8789 28.3939 25.6419 35.4926 25.6419 35.4926C24.6897 40.8875 23.3561 42.0243 23.3561 42.0243Z" fill="white"/>
<path d="M40.4955 13.04C39.2594 10.8857 30.4475 13.6211 20.8075 19.1487C11.1675 24.6765 4.36768 30.9043 5.60287 33.0577C6.83803 35.2111 15.651 32.4766 25.2909 26.9489C34.9308 21.4211 41.7307 15.1933 40.4955 13.04ZM6.7433 32.7622C6.27005 32.7026 6.37696 32.3136 6.37696 32.3136C6.9575 30.6629 8.80487 28.9422 8.80487 28.9422C13.3944 24.0043 25.6186 17.5406 25.6186 17.5406C35.6013 12.8961 38.7021 13.092 39.4887 13.3086C39.5694 13.3311 39.6396 13.3815 39.6867 13.4509C39.7339 13.5201 39.755 13.6039 39.7463 13.6873C39.6517 14.7177 37.8296 16.5761 37.8296 16.5761C32.1418 22.2542 25.7255 25.7174 25.7255 25.7174C20.319 29.0386 13.546 31.4966 13.546 31.4966C8.39228 33.3538 6.7433 32.7622 6.7433 32.7622Z" fill="white"/>
<path d="M40.4496 33.1274C41.6952 30.9788 34.9124 24.7224 25.3064 19.1531C15.7002 13.5838 6.88939 10.8146 5.64482 12.9669C4.40024 15.1191 11.182 21.3718 20.7935 26.9411C30.4051 32.5104 39.205 35.2798 40.4496 33.1274ZM6.47024 13.7971C6.28624 13.3608 6.67469 13.2558 6.67469 13.2558C8.39434 12.931 10.8099 13.671 10.8099 13.671C17.3814 15.1675 29.0995 22.5077 29.0995 22.5077C38.1215 28.8209 39.5052 31.6017 39.7126 32.391C39.7337 32.472 39.7255 32.5578 39.6895 32.6334C39.6534 32.7088 39.5919 32.7692 39.5157 32.8038C38.575 33.2345 36.0552 32.5927 36.0552 32.5927C28.2891 30.5104 22.0783 26.6951 22.0783 26.6951C16.4977 23.6852 10.9796 19.0539 10.9796 19.0539C6.78654 15.5236 6.47153 13.8019 6.47153 13.8019L6.47024 13.7971Z" fill="white"/>
<path d="M22.998 25.3658C24.3049 25.3658 25.3643 24.3063 25.3643 22.9995C25.3643 21.6927 24.3049 20.6333 22.998 20.6333C21.6913 20.6333 20.6318 21.6927 20.6318 22.9995C20.6318 24.3063 21.6913 25.3658 22.998 25.3658Z" fill="white"/>
<path d="M32.701 15.3319C33.459 15.3319 34.0735 14.6963 34.0735 13.9122C34.0735 13.1281 33.459 12.4924 32.701 12.4924C31.943 12.4924 31.3286 13.1281 31.3286 13.9122C31.3286 14.6963 31.943 15.3319 32.701 15.3319Z" fill="white"/>
<path d="M10.0819 20.2609C10.8399 20.2609 11.4544 19.6253 11.4544 18.8412C11.4544 18.057 10.8399 17.4214 10.0819 17.4214C9.32397 17.4214 8.70947 18.057 8.70947 18.8412C8.70947 19.6253 9.32397 20.2609 10.0819 20.2609Z" fill="white"/>
<path d="M20.5346 37.6788C21.2926 37.6788 21.907 37.0432 21.907 36.259C21.907 35.475 21.2926 34.8394 20.5346 34.8394C19.7766 34.8394 19.1621 35.475 19.1621 36.259C19.1621 37.0432 19.7766 37.6788 20.5346 37.6788Z" fill="white"/>
<path d="M31.3056 41.97C37.6317 41.97 42.7601 36.8417 42.7601 30.5155C42.7601 24.1894 37.6317 19.061 31.3056 19.061C24.9794 19.061 19.8511 24.1894 19.8511 30.5155C19.8511 36.8417 24.9794 41.97 31.3056 41.97Z" fill="white"/>
<path d="M35.1242 25.0208H27.4878V26.697H35.1242V25.0208Z" fill="#E50913"/>
<path d="M31.3394 37.8726C30.6178 37.8726 29.9712 37.7538 29.3995 37.5163C28.8279 37.2789 28.3687 36.9275 28.022 36.4621C27.6846 35.9967 27.5066 35.4362 27.4878 34.7809H30.0461C30.0836 35.1513 30.2102 35.4362 30.4257 35.6357C30.6412 35.8257 30.9223 35.9207 31.2691 35.9207C31.6252 35.9207 31.9063 35.8399 32.1125 35.6784C32.3187 35.5074 32.4217 35.2748 32.4217 34.9804C32.4217 34.7334 32.3374 34.5292 32.1687 34.3677C32.0094 34.2062 31.808 34.0732 31.5643 33.9687C31.33 33.8643 30.9926 33.7455 30.5522 33.6126C29.9149 33.4131 29.3948 33.2136 28.9919 33.0142C28.5889 32.8147 28.2422 32.5203 27.9517 32.1308C27.6612 31.7414 27.5159 31.2333 27.5159 30.6063C27.5159 29.6756 27.8486 28.9489 28.5139 28.4265C29.1793 27.8946 30.0461 27.6287 31.1145 27.6287C32.2015 27.6287 33.0777 27.8946 33.7431 28.4265C34.4084 28.9489 34.7645 29.6803 34.8114 30.6206H32.2109C32.1922 30.2977 32.075 30.046 31.8595 29.8655C31.6439 29.6756 31.3675 29.5805 31.0302 29.5805C30.7396 29.5805 30.5054 29.6613 30.3272 29.8228C30.1492 29.9747 30.0602 30.1979 30.0602 30.4924C30.0602 30.8153 30.2102 31.067 30.51 31.2475C30.8099 31.428 31.2784 31.6227 31.9157 31.8317C32.5529 32.0501 33.0684 32.2591 33.4619 32.4585C33.8649 32.658 34.2116 32.9477 34.5022 33.3276C34.7927 33.7076 34.9379 34.1967 34.9379 34.7951C34.9379 35.365 34.7927 35.8827 34.5022 36.3481C34.221 36.8135 33.8087 37.1839 33.2652 37.4594C32.7216 37.7348 32.0797 37.8726 31.3394 37.8726Z" fill="black"/>
</svg>
