<svg width="218" height="50" viewBox="0 0 218 50" fill="none" xmlns="http://www.w3.org/2000/svg">
<g clip-path="url(#clip0_2034_75)">
<path d="M76.1331 19.9883C76.1331 21.6642 75.7408 23.196 74.9564 24.5838C74.198 25.9454 73.0344 27.0451 71.4655 27.8831C69.9227 28.6948 68.0269 29.1006 65.7781 29.1006H61.9734V38.4486H54.2856V10.7582H65.7781C68.0008 10.7582 69.8835 11.151 71.4263 11.9365C72.9952 12.7221 74.1719 13.8087 74.9564 15.1965C75.7408 16.5843 76.1331 18.1816 76.1331 19.9883ZM65.0328 22.9734C67.2032 22.9734 68.2884 21.9784 68.2884 19.9883C68.2884 17.9721 67.2032 16.964 65.0328 16.964H61.9734V22.9734H65.0328Z" fill="white"/>
<path d="M89.655 38.7235C86.4387 38.7235 83.7977 37.9642 81.7319 36.4455C79.6661 34.9006 78.5548 32.701 78.3979 29.8469H86.5956C86.674 30.8157 86.9617 31.5227 87.4585 31.9679C87.9553 32.413 88.596 32.6356 89.3805 32.6356C90.0865 32.6356 90.6617 32.4654 91.1063 32.125C91.577 31.7584 91.8123 31.2609 91.8123 30.6325C91.8123 29.8207 91.4331 29.1923 90.6748 28.7471C89.9165 28.302 88.6875 27.8045 86.9878 27.2546C85.1835 26.6524 83.7192 26.0763 82.5948 25.5264C81.4966 24.9504 80.529 24.1255 79.6923 23.052C78.8817 21.9522 78.4764 20.5251 78.4764 18.7708C78.4764 16.9902 78.9209 15.4715 79.8099 14.2146C80.699 12.9316 81.928 11.9627 83.4969 11.3081C85.0659 10.6535 86.844 10.3262 88.8313 10.3262C92.0476 10.3262 94.6102 11.0855 96.5191 12.6042C98.4541 14.0968 99.487 16.2047 99.6178 18.9279H91.2632C91.237 18.09 90.9755 17.4615 90.4787 17.0426C90.008 16.6236 89.3935 16.4141 88.6352 16.4141C88.0599 16.4141 87.5892 16.5843 87.2232 16.9247C86.8571 17.2651 86.674 17.7496 86.674 18.378C86.674 18.9017 86.8702 19.3599 87.2624 19.7527C87.6808 20.1193 88.1907 20.4466 88.7921 20.7346C89.3935 20.9965 90.2826 21.3369 91.4593 21.7558C93.2113 22.3581 94.6495 22.9603 95.7739 23.5626C96.9244 24.1386 97.905 24.9635 98.7156 26.037C99.5524 27.0844 99.9708 28.4198 99.9708 30.0433C99.9708 31.6929 99.5524 33.1724 98.7156 34.4816C97.905 35.7908 96.7152 36.8251 95.1463 37.5845C93.6035 38.3439 91.7731 38.7235 89.655 38.7235Z" fill="white"/>
<path d="M124.372 10.7582V16.8855H116.998V38.4486H109.311V16.8855H102.015V10.7582H124.372Z" fill="white"/>
<path d="M144.71 33.9317H134.904L133.414 38.4486H125.334L135.414 10.7582H144.279L154.32 38.4486H146.201L144.71 33.9317ZM142.788 28.0402L139.807 19.085L136.866 28.0402H142.788Z" fill="white"/>
<path d="M173.182 38.4486L164.513 26.312V38.4486H156.826V10.7582H164.513V22.6985L173.103 10.7582H181.968L171.809 24.191L182.478 38.4486H173.182Z" fill="white"/>
<path d="M192.973 16.9247V21.4416H201.799V27.2939H192.973V32.2821H202.975V38.4486H185.286V10.7582H202.975V16.9247H192.973Z" fill="white"/>
<ellipse cx="24.8158" cy="24.5865" rx="24.5565" ry="24.5865" fill="white"/>
<path d="M35.4982 7.62305H14.134V11.8027H35.4982V7.62305Z" fill="#E50913"/>
<path d="M25.1027 41.6728C23.1167 41.6728 21.3371 41.3436 19.7638 40.6854C18.1905 40.0271 16.9267 39.0529 15.9723 37.7627C15.0438 36.4725 14.5538 34.919 14.5022 33.1022H21.5434C21.6466 34.1291 21.9948 34.919 22.588 35.472C23.1812 35.9986 23.955 36.2619 24.9093 36.2619C25.8894 36.2619 26.6632 36.0381 27.2306 35.5904C27.798 35.1165 28.0817 34.4714 28.0817 33.6552C28.0817 32.9706 27.8496 32.4045 27.3853 31.9568C26.9469 31.5092 26.3923 31.1406 25.7217 30.851C25.0769 30.5613 24.1484 30.2322 22.9362 29.8636C21.1823 29.3106 19.7509 28.7577 18.6418 28.2048C17.5328 27.6518 16.5785 26.8356 15.7789 25.756C14.9793 24.6765 14.5796 23.2678 14.5796 21.53C14.5796 18.9496 15.4952 16.9353 17.3264 15.4871C19.1577 14.0126 21.5434 13.2754 24.4837 13.2754C27.4756 13.2754 29.8872 14.0126 31.7184 15.4871C33.5496 16.9353 34.5297 18.9628 34.6587 21.5695H27.5014C27.4498 20.6742 27.1274 19.9765 26.5342 19.4762C25.941 18.9496 25.1801 18.6863 24.2516 18.6863C23.452 18.6863 22.8072 18.9101 22.3172 19.3577C21.8271 19.779 21.5821 20.3978 21.5821 21.214C21.5821 22.1093 21.9948 22.807 22.8201 23.3073C23.6455 23.8076 24.9351 24.3473 26.689 24.9266C28.4428 25.5322 29.8614 26.1115 30.9446 26.6644C32.0537 27.2174 33.008 28.0204 33.8076 29.0737C34.6071 30.1269 35.0069 31.4829 35.0069 33.1417C35.0069 34.7215 34.6071 36.1565 33.8076 37.4467C33.0338 38.7369 31.8989 39.7638 30.403 40.5274C28.9071 41.291 27.1403 41.6728 25.1027 41.6728Z" fill="black"/>
</g>
<defs>
<clipPath id="clip0_2034_75">
<rect width="218" height="49.1729" fill="white"/>
</clipPath>
</defs>
</svg>
