<svg width="40" height="40" viewBox="0 0 40 40" fill="none" xmlns="http://www.w3.org/2000/svg">
<path d="M20 40C31.0457 40 40 31.0457 40 20C40 8.9543 31.0457 0 20 0C8.9543 0 0 8.9543 0 20C0 31.0457 8.9543 40 20 40Z" fill="white"/>
<path d="M26.992 10.4102H13.6587V13.3369H26.992V10.4102Z" fill="#E50913"/>
<path d="M27.2468 20.7679C27.2468 21.7994 27.0101 22.7463 26.5365 23.6088C26.0631 24.4543 25.3359 25.1392 24.3551 25.6635C23.3743 26.1877 22.1567 26.4498 20.7024 26.4498H18.0136V32.842H13.676V15.0352H20.7024C22.1229 15.0352 23.3235 15.2804 24.3043 15.7708C25.2851 16.2612 26.0207 16.9376 26.5112 17.8001C27.0016 18.6624 27.2468 19.6518 27.2468 20.7679ZM20.3726 23.0001C21.2013 23.0001 21.8185 22.8056 22.2243 22.4166C22.6302 22.0277 22.8331 21.4781 22.8331 20.7679C22.8331 20.0576 22.6302 19.508 22.2243 19.1191C21.8185 18.7301 21.2013 18.5357 20.3726 18.5357H18.0136V23.0001H20.3726Z" fill="black"/>
</svg>
