<svg width="122" height="122" viewBox="0 0 122 122" fill="none" xmlns="http://www.w3.org/2000/svg">
<g filter="url(#filter0_d_87_92)">
<path d="M61 102C85.8528 102 106 81.8528 106 57C106 32.1472 85.8528 12 61 12C36.1472 12 16 32.1472 16 57C16 81.8528 36.1472 102 61 102Z" fill="#C73238"/>
<path d="M118 57C118 64.4853 116.526 71.8974 113.661 78.813C110.797 85.7285 106.598 92.0121 101.305 97.3051C96.0121 102.598 89.7285 106.797 82.813 109.661C75.8974 112.526 68.4853 114 61 114C53.5147 114 46.1026 112.526 39.187 109.661C32.2715 106.797 25.9879 102.598 20.6949 97.3051C15.402 92.0121 11.2034 85.7285 8.33886 78.813C5.47435 71.8974 4 64.4853 4 57H17.6615C17.6615 62.6913 18.7824 68.3269 20.9604 73.5849C23.1384 78.843 26.3307 83.6206 30.355 87.645C34.3794 91.6693 39.157 94.8616 44.4151 97.0396C49.6731 99.2176 55.3087 100.339 61 100.339C66.6913 100.339 72.3269 99.2176 77.5849 97.0396C82.843 94.8616 87.6206 91.6693 91.645 87.645C95.6693 83.6206 98.8616 78.843 101.04 73.5849C103.218 68.3269 104.339 62.6913 104.339 57H118Z" fill="#C73238"/>
<path d="M106 57C106 62.9095 104.836 68.7611 102.575 74.2208C100.313 79.6804 96.9984 84.6412 92.8198 88.8198C88.6412 92.9984 83.6804 96.3131 78.2208 98.5746C72.7611 100.836 66.9095 102 61 102C55.0905 102 49.2389 100.836 43.7792 98.5746C38.3196 96.3131 33.3588 92.9984 29.1802 88.8198C25.0016 84.6412 21.6869 79.6804 19.4254 74.2208C17.164 68.7611 16 62.9095 16 57L61 57H106Z" fill="#070B09"/>
<path d="M75.3333 33H46V39.439H75.3333V33Z" fill="white"/>
<path d="M75.8944 55.8028C75.8944 58.0722 75.3736 60.1556 74.3319 62.053C73.2902 63.9131 71.6905 65.4199 69.5327 66.5732C67.3749 67.7265 64.6963 68.3031 61.4968 68.3031H55.5815V82.3659H46.0388V43.1909H61.4968C64.6218 43.1909 67.2633 43.7304 69.4211 44.8093C71.5789 45.8882 73.1972 47.3763 74.2761 49.2736C75.355 51.171 75.8944 53.3474 75.8944 55.8028ZM60.7713 60.7137C62.5943 60.7137 63.9522 60.2858 64.8451 59.4301C65.7379 58.5745 66.1844 57.3654 66.1844 55.8028C66.1844 54.2403 65.7379 53.0312 64.8451 52.1755C63.9522 51.3198 62.5943 50.892 60.7713 50.892H55.5815V60.7137H60.7713Z" fill="white"/>
</g>
<defs>
<filter id="filter0_d_87_92" x="0" y="0" width="122" height="122" filterUnits="userSpaceOnUse" color-interpolation-filters="sRGB">
<feFlood flood-opacity="0" result="BackgroundImageFix"/>
<feColorMatrix in="SourceAlpha" type="matrix" values="0 0 0 0 0 0 0 0 0 0 0 0 0 0 0 0 0 0 127 0" result="hardAlpha"/>
<feOffset dy="4"/>
<feGaussianBlur stdDeviation="2"/>
<feComposite in2="hardAlpha" operator="out"/>
<feColorMatrix type="matrix" values="0 0 0 0 0 0 0 0 0 0 0 0 0 0 0 0 0 0 0.25 0"/>
<feBlend mode="normal" in2="BackgroundImageFix" result="effect1_dropShadow_87_92"/>
<feBlend mode="normal" in="SourceGraphic" in2="effect1_dropShadow_87_92" result="shape"/>
</filter>
</defs>
</svg>
