<svg width="24" height="24" viewBox="0 0 24 24" fill="none" xmlns="http://www.w3.org/2000/svg">
<rect width="24.001" height="24" rx="12" fill="#1F1D2B"/>
<path d="M17.4104 11.4071C17.4104 12.0753 17.257 12.6888 16.9503 13.2474C16.6436 13.7952 16.1725 14.2388 15.5372 14.5784C14.9018 14.918 14.1131 15.0878 13.171 15.0878H11.4293V19.2286H8.61945V7.69354H13.171C14.0912 7.69354 14.8689 7.85238 15.5043 8.17006C16.1397 8.48774 16.6162 8.92592 16.9339 9.48459C17.2515 10.0433 17.4104 10.6841 17.4104 11.4071ZM12.9574 12.8531C13.4942 12.8531 13.894 12.7271 14.1569 12.4752C14.4198 12.2232 14.5513 11.8672 14.5513 11.4071C14.5513 10.947 14.4198 10.591 14.1569 10.339C13.894 10.0871 13.4942 9.96111 12.9574 9.96111H11.4293V12.8531H12.9574Z" fill="white"/>
<path d="M17.4683 4.7713H8.61951V6.62769H17.4683V4.7713Z" fill="#E50913"/>
</svg>
