<svg width="21" height="21" viewBox="0 0 21 21" fill="none" xmlns="http://www.w3.org/2000/svg">
<path d="M10.4795 21C16.2898 21 21 16.2898 21 10.4795C21 4.66918 16.2898 -0.0410156 10.4795 -0.0410156C4.66918 -0.0410156 -0.0410156 4.66918 -0.0410156 10.4795C-0.0410156 16.2898 4.66918 21 10.4795 21Z" fill="white"/>
<path d="M14.1572 5.43262H7.14355V6.97218H14.1572V5.43262Z" fill="#E50913"/>
<path d="M14.2914 10.8857C14.2914 11.4283 14.1669 11.9264 13.9178 12.3801C13.6687 12.8248 13.2862 13.1851 12.7703 13.4609C12.2544 13.7366 11.6139 13.8745 10.8489 13.8745H9.43453V17.237H7.15283V7.87012H10.8489C11.5961 7.87012 12.2277 7.99911 12.7436 8.25706C13.2595 8.51505 13.6465 8.87086 13.9045 9.32453C14.1624 9.77816 14.2914 10.2986 14.2914 10.8857ZM10.6754 12.0599C11.1113 12.0599 11.436 11.9576 11.6495 11.7529C11.8629 11.5484 11.9697 11.2593 11.9697 10.8857C11.9697 10.5121 11.8629 10.2229 11.6495 10.0184C11.436 9.81377 11.1113 9.71147 10.6754 9.71147H9.43453V12.0599H10.6754Z" fill="black"/>
</svg>
